<svg xmlns="http://www.w3.org/2000/svg" width="23.755" height="40" viewBox="0 0 23.755 40">
  <g id="Path_1" data-name="Path 1" transform="translate(-77 3)" fill="none" stroke-linecap="round" stroke-linejoin="round" fill-rule="evenodd">
    <path d="M91.522,34V18.511h5.289l.756-6.044H91.522V8.689c0-1.7.567-3.022,3.022-3.022h3.211V.189C97,.189,95.111,0,93.033,0,88.5,0,85.289,2.833,85.289,7.933v4.533H80v6.044h5.289V34Z" stroke="none"/>
    <path d="M 91.52201080322266 33.9994010925293 L 91.52201080322266 18.51078224182129 L 96.81082153320312 18.51078224182129 L 97.56637573242188 12.46645259857178 L 91.52201080322266 12.46645259857178 L 91.52201080322266 8.688732147216797 C 91.52201080322266 6.988762378692627 92.08870697021484 5.666572570800781 94.54419708251953 5.666572570800781 L 97.75522613525391 5.666572570800781 L 97.75522613525391 0.1888824552297592 C 96.99970245361328 0.1888824552297592 95.11083984375 2.453613205943839e-06 93.03308868408203 2.453613205943839e-06 C 88.49984741210938 2.453613205943839e-06 85.28879547119141 2.833282470703125 85.28879547119141 7.933192253112793 L 85.28879547119141 12.4664421081543 L 79.99999237060547 12.4664421081543 L 79.99999237060547 18.51078224182129 L 85.28879547119141 18.51078224182129 L 85.28879547119141 33.9994010925293 L 91.52201080322266 33.9994010925293 M 91.52201080322266 36.9994010925293 L 85.28879547119141 36.9994010925293 C 83.63195037841797 36.9994010925293 82.28879547119141 35.65625381469727 82.28879547119141 33.9994010925293 L 82.28879547119141 21.51078224182129 L 79.99999237060547 21.51078224182129 C 78.3431396484375 21.51078224182129 76.99999237060547 20.16763305664062 76.99999237060547 18.51078224182129 L 76.99999237060547 12.4664421081543 C 76.99999237060547 10.80959224700928 78.3431396484375 9.466442108154297 79.99999237060547 9.466442108154297 L 82.28879547119141 9.466442108154297 L 82.28879547119141 7.933192253112793 C 82.28879547119141 4.660672664642334 83.35018157958984 1.887832403182983 85.35817718505859 -0.08555754274129868 C 87.29827880859375 -1.992197513580322 89.95221710205078 -2.999997615814209 93.03308868408203 -2.999997615814209 C 94.41934204101562 -2.999997615814209 95.70964050292969 -2.922427654266357 96.65177154541016 -2.865787506103516 C 97.11940765380859 -2.837667465209961 97.56111145019531 -2.811117649078369 97.75522613525391 -2.811117649078369 C 99.41207885742188 -2.811117649078369 100.7552261352539 -1.467967510223389 100.7552261352539 0.1888824552297592 L 100.7552261352539 5.666572570800781 C 100.7552261352539 7.323422431945801 99.41207885742188 8.666572570800781 97.75522613525391 8.666572570800781 L 94.54419708251953 8.666572570800781 C 94.53672027587891 8.666572570800781 94.52933502197266 8.666594505310059 94.52206420898438 8.666637420654297 C 94.52202606201172 8.673907279968262 94.52201080322266 8.681252479553223 94.52201080322266 8.688732147216797 L 94.52201080322266 9.466452598571777 L 97.56637573242188 9.466452598571777 C 98.42687225341797 9.466452598571777 99.24594116210938 9.835952758789062 99.81542205810547 10.48105239868164 C 100.3848876953125 11.12614250183105 100.6499481201172 11.98471260070801 100.543212890625 12.83856201171875 L 99.78765106201172 18.88289260864258 C 99.59999084472656 20.38418197631836 98.32379150390625 21.51078224182129 96.81082153320312 21.51078224182129 L 94.52201080322266 21.51078224182129 L 94.52201080322266 33.9994010925293 C 94.52201080322266 35.65625381469727 93.17885589599609 36.9994010925293 91.52201080322266 36.9994010925293 Z" stroke="none" fill="#fff"/>
  </g>
</svg>
