<svg height="33.121" viewBox="0 0 33.121 33.121" width="33.121" xmlns="http://www.w3.org/2000/svg"><path d="m16.56 2.944a50.778 50.778 0 0 1 6.624.184 8.534 8.534 0 0 1 3.128.552 6.462 6.462 0 0 1 3.128 3.128 8.534 8.534 0 0 1 .552 3.128c0 1.656.184 2.208.184 6.624a50.775 50.775 0 0 1 -.184 6.624 8.534 8.534 0 0 1 -.552 3.128 6.462 6.462 0 0 1 -3.128 3.128 8.534 8.534 0 0 1 -3.128.552c-1.656 0-2.208.184-6.624.184a50.775 50.775 0 0 1 -6.624-.184 8.534 8.534 0 0 1 -3.128-.552 6.462 6.462 0 0 1 -3.128-3.127 8.534 8.534 0 0 1 -.552-3.128c0-1.656-.184-2.208-.184-6.624a50.778 50.778 0 0 1 .184-6.624 8.534 8.534 0 0 1 .552-3.129 6.609 6.609 0 0 1 1.288-1.84 3.111 3.111 0 0 1 1.84-1.288 8.534 8.534 0 0 1 3.128-.552 50.778 50.778 0 0 1 6.624-.184m0-2.944a54.368 54.368 0 0 0 -6.808.184 11.36 11.36 0 0 0 -4.052.736 7.2 7.2 0 0 0 -2.94 1.84 7.2 7.2 0 0 0 -1.84 2.94 8.384 8.384 0 0 0 -.736 4.052 54.368 54.368 0 0 0 -.184 6.808 54.368 54.368 0 0 0 .184 6.808 11.36 11.36 0 0 0 .736 4.049 7.2 7.2 0 0 0 1.84 2.944 7.2 7.2 0 0 0 2.94 1.839 11.36 11.36 0 0 0 4.048.736 54.369 54.369 0 0 0 6.808.184 54.369 54.369 0 0 0 6.808-.184 11.36 11.36 0 0 0 4.048-.736 7.72 7.72 0 0 0 4.788-4.783 11.36 11.36 0 0 0 .736-4.048c0-1.84.184-2.392.184-6.808a54.369 54.369 0 0 0 -.184-6.808 11.36 11.36 0 0 0 -.736-4.053 7.2 7.2 0 0 0 -1.84-2.944 7.2 7.2 0 0 0 -2.943-1.836 11.36 11.36 0 0 0 -4.048-.736 54.368 54.368 0 0 0 -6.809-.184m0 8.1a8.328 8.328 0 0 0 -8.46 8.46 8.464 8.464 0 1 0 8.46-8.46m0 13.984a5.422 5.422 0 0 1 -5.52-5.52 5.422 5.422 0 0 1 5.52-5.52 5.422 5.422 0 0 1 5.52 5.52 5.422 5.422 0 0 1 -5.52 5.52m8.833-16.384a2.024 2.024 0 1 0 2.024 2.024 2.042 2.042 0 0 0 -2.024-2.024" fill="#ffffff" fill-rule="evenodd"/></svg>