<svg xmlns="http://www.w3.org/2000/svg" width="31.5" height="31.5" viewBox="0 0 31.5 31.5">
  <g id="Group_945" data-name="Group 945" transform="translate(-7662.25 6951.75)">
    <path id="Path_1687" data-name="Path 1687" d="M6.333,4H13l3.333,8.333-4.167,2.5A18.333,18.333,0,0,0,20.5,23.167L23,19l8.333,3.333V29A3.333,3.333,0,0,1,28,32.333a26.667,26.667,0,0,1-25-25A3.333,3.333,0,0,1,6.333,4" transform="translate(7660 -6953.333)" fill="none" stroke="#fc6426" stroke-linecap="round" stroke-linejoin="round" stroke-width="1.5"/>
    <path id="Path_1688" data-name="Path 1688" d="M15,7a3.333,3.333,0,0,1,3.333,3.333" transform="translate(7668 -6951.333)" fill="none" stroke="#fc6426" stroke-linecap="round" stroke-linejoin="round" stroke-width="1.5"/>
    <path id="Path_1689" data-name="Path 1689" d="M15,3A10,10,0,0,1,25,13" transform="translate(7668 -6954)" fill="none" stroke="#fc6426" stroke-linecap="round" stroke-linejoin="round" stroke-width="1.5"/>
  </g>
</svg>
