<?xml version="1.0" encoding="UTF-8"?>
<svg id="Layer_1" data-name="Layer 1" xmlns="http://www.w3.org/2000/svg" viewBox="0 0 262.57 103.73">
  <defs>
    <style>
      .cls-1, .cls-2, .cls-3, .cls-4 {
        stroke-width: 0px;
      }

      .cls-2 {
        fill: #009af3;
      }

      .cls-3 {
        fill: #fff;
      }

      .cls-4 {
        fill: #ffcf03;
      }
    </style>
  </defs>
  <path class="cls-3" d="m64.26,62.94c-.07.09-.13.21-.22.25-.65.32-1.31.63-1.96.94-.19-.71-.39-1.41-.58-2.12,1.69.96,2.3-.01,2.74-1.08,1.29-3.12,1.27-6.41,1.52-10.01-3.56,1.17-2.16,4.56-3.64,6.4-.99-3.1-.1-5.77,2.24-6.77,1.59-.68,2.5-.11,2.25,1.59-.53,3.6-.46,7.33-2.21,10.68-.04.04-.09.08-.14.11Z"/>
  <path class="cls-3" d="m53.9,103.68c0-1.98-.05-3.96.01-5.93.09-2.93.16-5.87.43-8.78.07-.78.84-1.5,1.48-2.55-.36,6.11-.69,11.71-1.03,17.31l-.89-.05Z"/>
  <path class="cls-4" d="m13.98,39.7c16.55-8.62,33.42-16.59,50.6-23.88-3.46-4.49-6.92-8.97-10.39-13.46-7.92,7.16-17.39,12.25-26.38,17.92-9.86,6.23-18.82,13.17-25.87,22.55-2.25,2.99-1.12,7.92,1.34,10.39,2.89,2.89,6.86,2.91,10.39,1.34,25.91-11.53,53.91-17.55,79.24-30.56-2.88-4.93-5.77-9.87-8.65-14.8-24.36,14-41.99,36.88-66.21,51-8.19,4.77-2.81,18.83,6.6,15.66,14.1-4.73,28.19-9.46,42.29-14.19-2.2-5.22-4.4-10.44-6.6-15.66-14.34,9.01-28.69,18.01-43.03,27.02-3.59,2.26-5.25,6.75-3.51,10.7,1.84,4.18,5.76,5.65,10.11,4.96,16.26-2.57,32.52-5.15,48.78-7.72-2.2-5.22-4.4-10.44-6.6-15.66-12.93,5.89-25.86,11.78-38.79,17.67-8.16,3.71-3.54,15.78,4.33,15.97,12.14.3,24.28.37,36.42.21,11.02-.14,11.05-17.29,0-17.14-12.14.16-24.28.09-36.42-.21,1.44,5.32,2.88,10.65,4.33,15.97,12.93-5.89,25.86-11.78,38.79-17.67,3.83-1.75,5.07-7.15,3.51-10.7-1.84-4.18-5.76-5.65-10.11-4.96-16.26,2.57-32.52,5.15-48.78,7.72,2.2,5.22,4.4,10.44,6.6,15.66,14.34-9.01,28.69-18.01,43.03-27.02,7.91-4.97,2.96-18.87-6.6-15.66-14.1,4.73-28.19,9.46-42.29,14.19,2.2,5.22,4.4,10.44,6.6,15.66,24.26-14.14,41.89-37.03,66.21-51,9.62-5.53,1.12-19.82-8.65-14.8C59.01,22.16,30.91,28.23,5.02,39.75l11.73,11.73c5.88-7.82,14.52-13.21,22.72-18.27,9.31-5.75,18.69-11.37,26.85-18.73,3.14-2.83,3.2-8.08.67-11.25-2.88-3.61-7-3.93-11.06-2.21C38.75,8.31,21.88,16.28,5.33,24.9c-9.79,5.1-1.13,19.9,8.65,14.8h0Z"/>
  <path class="cls-3" d="m262.57,4H52.57c-.87-.02-1.73-.02-2.6,0h-1.01v.03c-1.53.06-3.07.17-4.71.37-7.39.91-14.37,3.06-20.51,7.11-3.98,2.63-7.59,5.92-10.94,9.32-3.91,3.97-6.53,8.84-8.75,13.97C1.05,41.75-.21,48.96.03,56.43c.38,11.69,4.54,22.05,11.85,31.22.71.89,1.61,1.62,2.42,2.43,1.13,1.14,1.98.69,2.81-.48-.47-.51-.92-.98-1.35-1.46-1.21-1.35-2.5-2.65-3.62-4.08-5.13-6.55-8.04-14-9.41-22.12-1.57-9.35-.62-18.43,3.06-27.14,2.31-5.47,5.83-10.25,9.98-14.59,5.65-5.91,12.32-10.17,20.24-12.51,4.65-1.38,8.59-1.94,12.95-1.97v.03h2.28c.89.03,1.79.07,2.74.13l1.81-.13h206.78v-1.76Z"/>
  <g>
    <g>
      <path class="cls-3" d="m57,89.76c1.29-1.33-.47-11.09,2.1-15.74,1.16-2.1.47-2.18,1.17-4.9.59-2.26,1.54-5.06,1.96-7.86.4-2.63,1.95-1.26,3.22-4.59.71-1.86,1.18-7.62,1.72-10.52,1.23-6.67,1.02-7.81,1.01-9.45-.07-6.53-.1-9.79-1.36-12.44-2.64-5.55-7.93-7.75-11.35-9.17-3.01-1.25-8.72-3.62-15.29-1.31-5.16,1.81-8.22,5.59-9.23,6.88-1.29,1.63-3.08,3.9-3.94,7.37-1.13,4.58.39,7.05-.76,14.9-.21,1.4-1.06,4.5-1.13,4.88-2.22,12.64,28.62,45.34,31.88,41.96Z"/>
      <g>
        <path class="cls-1" d="m29.76,89.52c-1.59-1.51-3.21-2.85-4.57-4.41-.76-.86-1.22-2.05-1.59-3.17-.29-.91,0-1.72.76-2.58,1.01-1.15,1.56-2.7,2.34-4.06.96-1.67,1.97-3.3,2.91-4.97.21-.38.46-1.02.29-1.31-1.08-1.85-.52-3.94-.96-5.87-.38-1.69-.74-3.38-1.11-5.06.17.31.27.76.52.88.52.24,1.13.3,1.7.44.03-.52.06-1.04.11-1.85-.65.38-.93.55-1.24.73-.89-1.71-1.75-3.37-2.61-5.03-.06-.12-.11-.24-.15-.36-.78-2.11-.09-3.2,2.14-3.36-.32-.28-.72-.63-1.06-.57-.92.14-1.74.65-1.72,1.67.03,1.06.33,2.12.5,3.18-1.53-1.77-1.55-3.78-.9-6.03,1,.51,2.26-.84,3.16.44.62.88,1.06,1.88,1.66,2.98.26-1.34.62-2.73.76-4.15.11-1.11-.06-2.25-.11-3.38,0-.13-.02-.3-.1-.38-1.82-1.82-1.08-4.27-1.57-6.41-.58-2.59-.9-5.24-1.33-7.86.11-.02.22-.04.33-.06.33,1.69.65,3.37.98,5.06.16.01.32.02.48.03.14-.8.36-1.59.39-2.39.06-2.1.04-4.2,1.3-6.02.32-.47.85-.79,1.21-1.24.89-1.11,1.73-2.26,2.6-3.38.34-.44.7-.87,1.06-1.31.12.09.25.18.37.27-.31.59-.61,1.18-.92,1.77.09.06.18.12.26.19.37-.25.75-.5,1.23-.83.28.94,1.55,1.68.26,2.82.74-.2,1.48-.49,2.23-.57.31-.04.67.35,1,.55-.26.24-.48.63-.78.7-2.34.54-4.21,1.76-5.79,3.57-1.2,1.37-1.18,3.03-1.38,4.64-.17,1.36-.09,2.75-.21,4.12-.27,3.01-.59,6.02-.9,9.2,2.28-2.58,5.19-2.46,8.16-2.08.35.04.78.19,1.03.05.46-.26,1-.64,1.14-1.09.09-.3-.35-.98-.72-1.17-.51-.27-1.18-.37-1.77-.33-2.38.15-4.71.51-6.47,2.53-.21-1.9,2.1-3.53,4.2-3.57,2.41-.04,4.82-.05,7.22-.06,3.1-.02,6.2,0,9.3-.07.36,0,.71-.46,1.06-.71-.27-.33-.5-.88-.83-.95-.85-.17-1.74-.14-2.61-.15-3.53-.01-7.06,0-10.6,0-.02-.16-.04-.33-.06-.49,1.12-.31,2.23-.8,3.36-.87,1.38-.07,2.78.36,4.17.32,1.86-.05,3.76-.18,5.55-.63.71-.18,1.16-1.35,1.74-2.06-.09-.11-.18-.21-.27-.32-.43.13-.9.21-1.29.41-2.07,1.08-4.24,1.14-6.52.92-1.8-.17-3.66-.19-5.44.04-2.35.31-4.48.19-6.15-1.69-.39-.44-.58-1.06-.87-1.6.12-.1.23-.19.35-.29.52.38,1.01.84,1.57,1.13.68.35,1.52.92,2.13.76,1.53-.38,3.12-.9,4.42-1.77,1.17-.78.45-2.29.46-3.46.01-1.47-.21-2.95-.31-4.16.86-.41,1.41-.68,1.96-.94-.05-.1-.1-.19-.16-.29.64,0,1.3.08,1.92-.02.96-.14,1.14-.72.51-1.46-.17-.2-.38-.36-.59-.52-1.66-1.28-1.86-2.13-.96-4.15-.07,2.46.14,2.87,2.14,3.68.28.12.66,0,1-.01-.1-.37-.14-.78-.32-1.11-.38-.69-.9-1.31-1.24-2.02-.08-.17.31-.58.49-.87.31.19.77.29.91.57,1.03,1.97,1.16,2.05,3.44,1.25-.72-.39-1.44-.79-2.15-1.18,2.88-.49,4.8,1.44,7.1,2.77-.24-.56-.49-1.11-.71-1.62q1.08.16,2.95,3.66c.4.29.99.49,1.16.88.46,1.03.74,2.14,1.07,3.22.13.44.23.88.36,1.43,1.05-1.52.85-3.44-.26-6.31.41.57,1.06,1.09,1.18,1.72.48,2.43.58,4.85-.55,7.2-.44.91-.59,1.96-.87,2.95.13.06.26.11.38.17,1.08-1.55,2.17-3.09,3.25-4.64.06.03.11.05.17.08-.48.81-.86,1.71-1.46,2.42-1.23,1.49-2.04,3.15-2.39,5.04-.05.26-.08.52-.08.78,0,.11.11.21.33.62,1.31-3.31,4.81-4.98,5.05-8.74l.43.09c0,.53.21,1.2-.04,1.57-.95,1.45-1.94,2.89-3.09,4.19-2.19,2.49-3.24,5.35-3.26,8.63,0,.13.04.25.09.5.27-.15.49-.28.93-.53-2.01,3.47-1.16,7.08-1.42,10.57-.16,2.17-1.06,4.06-2.67,5.53-1.89,1.73-3.37,3.67-3.79,6.32-.52-.9-.8-2.04-1.52-2.5-1.52-.97-2.78-2.25-4.28-3.2-.63-.4-1.68-.5-2.39-.27-.7.23-1.64,1-1.71,1.63-.12.99.74,1.75,1.83,1.88.82.09,1.66.02,2.49.05.37.01.73.1,1.08.37-.53-.03-1.07-.06-2.03-.11,2.41,2.29,2.42,5.05,2.73,7.73.16.01.32.02.48.03.22-1.22.44-2.44.65-3.67.04,0,.09,0,.13,0-.08,1.59-.16,3.17-.24,4.76.84-.93,1.77-1.96,2.67-2.96.1.22.26.6.5,1.18.39-.71.69-1.24,1.07-1.95.33.48.57.84.93,1.36.26-.54.46-.96.66-1.38.2-.43.38-.86.83-1.21-.29.94-.57,1.89-.86,2.83,2.74-2.05,4.27-4.87,4.24-8.07-.04-3.7.48-7.36.3-11.05-.1-2.08.73-3.73,2.4-5.18-.08.38-.14.65-.31,1.39,1.32-.68,2.32-1.19,3.38-1.74-.4,3.01-.69,6-1.23,8.94-.2,1.06-.99,2.01-1.51,3.02,1.35-2.59,1.3-5.48,1.71-8.27.19-1.32-.51-1.76-1.74-1.23-1.8.77-2.49,2.84-1.73,5.24,1.15-1.42.06-4.05,2.82-4.95-.19,2.79-.18,5.33-1.18,7.75-.34.83-.82,1.58-2.12.84.15.55.3,1.09.45,1.64.51-.24,1.01-.48,1.52-.73.07-.04.11-.13.17-.2-1.23,2.03-1.54,4.34-2.05,6.59-.11.5-.57.91-.78,1.4-.23.54-1.12,1.06-.14,1.73.06.04.07.27.02.37-.54,1.13.09,2.67-1.24,3.52-.13.09-.24.28-.28.44-.42,1.75-1.95,1.45-3.16,1.75.92-1,2.68-1.03,3.11-2.86-.82.32-1.47.66-2.15.8-.8.17-1.64.22-2.46.24-.5.02-1.14-.33-1.46-.11-.43.29-.71.92-.88,1.46-.26.83.57,1.97,1.73,2.1,1.11.12,2.27-.14,3.75-.26.17,4.23.36,8.74.55,13.41.45-.12.91-.23,1.59-.41-1.04,1.47-1.92,2.8-2.9,4.07-2.4,3.12-4.85,6.2-7.24,9.33-.52.67-1.01.84-1.75.39-3.22-1.94-6.45-3.85-9.76-5.81m9.11-45.61c-1.87-.41-2.02-.27-1.66,1.57.12.6.19,1.22.4,1.79.34.91.5,1.72-.41,2.05.45.74.82,1.44,1.28,2.08.21.3.59.68.88.67.38-.01.87-.29,1.09-.61.26-.37.19-.95.4-1.37.4-.81.9-1.58,1.36-2.37.14.07.27.14.41.21-.09.31-.14.63-.27.93-.6,1.39-.37,2.76.23,4.06.15.33.81.74,1.05.64.59-.23,1.13-.69,1.59-1.16.27-.28.29-.8.55-1.09.46-.51,1.05-.91,1.56-1.38.55-.52,1.07-1.08,1.61-1.62.08.07.15.13.23.2-.25,1.14-.51,2.27-.81,3.65.36-.3.53-.38.61-.51,1.3-2.18,1.58-4.62,1.54-7.07,0-.43-.85-.99-1.42-1.23-.74-.31-1.6-.36-2.41-.5-1.38-.24-3.34.76-3.93,2.06.45-.03.85-.06,1.31-.09-2.17,2.28-3.54,1.41-5.22-.93,1.46.44,2.85.14,4.2-.44.28-.12.61-.41.68-.68.05-.2-.3-.49-.5-.78-1.43,1.78-2.94,1.76-4.35.05-.72.65-.89,1.27.02,1.89Zm-12.98-.57c-2.01-1.1-3.93-.33-3.95,1.43-.02,1.85-.2,3.7-.15,5.55.05,1.74.92,3.54-.67,5.03-.08-.06-.21-.18-.36-.26-.05-.03-.16.03-.29.06-.45,2.47.16,4.75,1.4,6.93-.12-1.48-.24-2.96-.37-4.45.4.44.56.92.66,1.41.56,2.69,1.09,5.38,1.67,8.06.2.94.45,1.91,1.63,2.13-.32.22-.63.45-.73.52.45,2.46.89,4.81,1.32,7.17.03-1.8-.14-3.57-.19-5.34-.01-.47.33-.95.52-1.47-.18-.17-.56-.51-.94-.85-1.14-2.38-1.01-5.51.24-7.05.41.89.83,1.83,1.26,2.76.13-.04.26-.08.39-.13.14-1.3.29-2.6.43-3.89.13.75.01,1.49.02,2.22,0,.69.14,1.37.21,2.06.2.02.4.03.59.05.26-.78.55-1.56.76-2.36.2-.76.27-1.55.44-2.32.35-1.57.81-3.04,2.71-3.45.47-.1.96-.48,1.28-.87.24-.29.41-.88.28-1.18-.63-1.46-2.65-2.04-3.74-.94-1.37,1.37-2.5,2.98-3.73,4.49-.19.23-.34.5-.51.75.58-3.12-1.57-5.2-2.97-7.81,1.2,0,2.05,0,2.91,0s1.68,0,2.61,0v-2.34c1.88.8.78,2.71,1.54,4.05.55-1.38,1.02-2.58,1.28-3.23.19-2.1.36-3.67.45-5.25.03-.49-.17-.99-.26-1.48-.38.37-.89.67-1.11,1.11-.94,1.88-1.89,2.09-3.77.71.54-.06,1.06-.13,1.93-.23-.79-.39-1.24-.57-1.64-.81-.41-.24-.78-.54-1.16-.82,1.36.13,2.72.3,4.08.34.32,0,.85-.41.93-.72.08-.32-.28-.75-.35-.9-.7.5-1.2,1.11-1.8,1.24-1.02.22-2-.06-2.37-1.34-.13.04-.26.08-.39.11-.02.44-.04.87-.06,1.31Zm6.99,21.98c1.47,3.25,2.91,3.98,4.65.21.12.25.23.5.3.66.55-.13.99-.24,1.43-.34.14.04.28.07.42.11-.19-1.43-.2-2.93-.63-4.28-.49-1.52-1.81-2.15-3.45-2.14.37-.23.74-.46,1.36-.85-1.41-.08-2.52-.16-3.63-.21-.43-.02-.87.04-1.31.06.37.2.75.39,1.12.59.09.05.17.13.37.28-2.56.96-3.56,2.91-3.29,5.36.18,1.59,1.88,1.73,3.27,2.62-.28-.95-.44-1.51-.61-2.08Zm1.38,2.72c.05.48.06.73.1.98.4,2.83-1.67,4.87-4.46,4.43-.23-.04-.56-.03-.71.1-.62.56-.31,3.46.42,4,1.88,1.4,4.09,1.34,6.27,1.29,2.85-.06,5.23-.98,6.51-4.32h-8.21c.76-1.34,1.54-2.31,1.86-3.4.36-1.27-.2-2.37-1.77-3.08Zm10-44.13c.04-3.18-1.02-4.71-3.77-5.7-1.36-.49-2.32-.1-2.93,1.23-.4.87-.75,1.76-1.1,2.65-.68,1.72-.46,3.33.93,4.56,1.37,1.22,2.99.85,4.44.15,1.25-.61,2.82-1.13,2.44-2.89Zm-27.68,48.2c-.19.05-.38.11-.57.16.35,1.23.46,2.61,1.12,3.64.67,1.03,1.86,1.75,2.88,2.54,1.89,1.48,3.85,2.87,5.73,4.36,3.78,2.98,7.62,5.85,12.05,7.84,1.22.55,2.78.43,3.76-.5-2.47.27-4.5-.59-6.35-1.94-5.06-3.67-10.11-7.36-15.15-11.06-1.73-1.27-3.16-2.77-3.47-5.04Zm32.02-35.1c0-1.43.08-2.47-.02-3.49-.3-3.09.71-6.22-.15-9.25-.46-1.63-1.33-3.16-2.09-4.7-.11-.22-.63-.25-.96-.36.06.3.1.61.19.9.25.78.72,1.54.76,2.32.14,2.74.16,5.48.18,8.22.01,2.23.57,4.26,2.09,6.36Zm-13.01,2.81c-.25.03-.68.15-1.09.1-1.1-.11-1.2.37-.86,1.25.15.39.26.83.25,1.25-.11,3.17-.27,6.33-.39,9.5-.01.26.01.56.14.76.17.27.44.64.7.66.25.02.73-.31.77-.53.13-.83.16-1.69.14-2.54-.01-.55-.28-1.11-.25-1.65.17-2.9.4-5.8.61-8.8Zm12.38-1.75c-1.61-3.56-6.58-4.89-9.94-2.6-.41.28-.54.97-.8,1.47.48.12,1.01.43,1.45.34,3.16-.68,6.29-1.25,9.19.85.01,0,.07-.04.1-.06Zm2.1.27c.2,0,.4.01.6.02.06-.37.17-.75.16-1.12-.12-4.05-.24-8.11-.4-12.16-.12-3.06-1.66-5.48-3.71-7.6-.47-.49-1.2-.74-1.81-1.1l-.25.3c2.02.87,2.8,2.64,3.5,4.48.25.65.57,1.28.8,1.94.13.37.15.78.19,1.17.08.73.1,1.46.22,2.18.21,1.24.63,2.46.67,3.7.1,2.73.03,5.46.03,8.19Zm-21.04,41.2c.25,1.03.36,1.67.57,2.28.07.21.33.4.56.51.59.29,1.19.56,1.81.76.24.08.72.03.81-.12.62-1.03,1.64-.9,2.56-.89,1.17.02,2.35.29,3.52.26,1.51-.04,3.02-.26,4.53-.41-.01-.16-.02-.32-.03-.48-4.89.41-9.67-.2-14.32-1.91Zm1.38-7.34c1.5.8,2.21.14,2.84-.6.74-.87.96-1.91.46-2.94-.37-.77-1.93-1.21-2.12-.72-.57,1.52-1.76,2.33-3.08,3.08-.22.13-.29.52-.44.8.3.08.65.3.91.22.97-.29,1.92-.67,2.88-1.02.05.04.1.08.15.11-.47.31-.93.62-1.62,1.07Zm10.73,1.15c-2.03-1.35-2.42-2.1-2.09-3.86.06-.34.23-.68.23-1.01,0-.34-.13-.68-.2-1.02-.34.11-.76.13-1.01.35-.42.37-.77.83-1.07,1.31-.73,1.17-.51,2.63.52,3.71,1,1.05,2.21,1.26,3.62.53Zm-15.59-9.09c-.44,1.42-.52,2.74.13,3.98.61,1.17,2,1.6,3.27,1.29,1.43-.34.58-1.43.93-2.28-2.22.12-3.31-1.34-4.33-3Zm-3.73,1.2c-.24.04-.49.07-.73.11-.19,1.1-.39,2.21-.58,3.31l.35.06.49-.95c.13,0,.25.01.38.02.15,2.72.3,5.44.45,8.16.21,0,.42-.02.63-.02.03-2.55.17-5.1.05-7.65-.05-1.03-.68-2.03-1.04-3.05Zm25.43,17.46l.69.04c.26-4.34.51-8.68.8-13.4-.49.81-1.09,1.37-1.14,1.98-.21,2.26-.27,4.53-.33,6.8-.04,1.53,0,3.06,0,4.59Zm-6.4-15.13c-1.15,1.05-1.25,2.8-.31,3.8,1.15,1.23,3.01,1.22,4.26-.02-.86-.37-1.89-.55-2.51-1.15-.66-.63-.94-1.67-1.44-2.63Zm4.8,13.79c.15,0,.3-.02.45-.02.26-3,.53-6,.79-9-.2-.05-.4-.1-.6-.16-.24.53-.59,1.03-.69,1.59-.15.81-.18,1.65-.16,2.47.03,1.71.13,3.41.2,5.12Zm-18.01-1.33c.17,0,.35-.01.52-.02,0-1.78-.1-3.56.03-5.33.1-1.28-.21-2.19-1.52-2.81.33,2.78.65,5.47.97,8.16Zm14.43-12.89c-.4.94-.1,1.89.91,2.64.98.73,2.32.79,2.97.28-1.27-.96-2.58-1.94-3.88-2.91Zm6.96-24.86c-.08-1.97-3.06-4.16-4.94-3.57,1.66,1.2,3.31,2.39,4.94,3.57Zm-13.7,44.91c2.65,2.41,7.69,1.03,9.88-.77-3.06,1.49-6.23,1.83-9.88.77Zm9.65-45.45c-1.38-1.55-2.91-2.21-4.8-1.84-1.08.21-1.89.82-2.31,1.59,1.09-.33,2.22-.97,3.32-.93,1.19.04,2.37.7,3.79,1.18Zm-14.44-1.14c-1.73-1.42-4.94-.69-6.64,1.64,2.24-1.25,4.21-2.45,6.64-1.64Zm3.19-4.31c.43.5.7.8.97,1.11.35-.32.92-.6.99-.97.07-.37-.37-.83-.58-1.25-.39.32-.78.63-1.37,1.11Zm7.45,47.55c.04-.09.07-.17.11-.26-1.82-.44-3.65-.88-5.47-1.32-.02.1-.05.19-.07.29l5.43,1.29Zm-5.69-31.88c.22.16.44.31.65.47.32-.45.67-.88.92-1.37.04-.08-.34-.38-.53-.58-.35.49-.69.99-1.04,1.48Zm-5.48-13.26c.94.08,1.55.13,2.15.18q-1.04-1.16-2.15-.18Zm15.1,43.96c-.01-.15-.02-.3-.03-.46-.89.16-1.79.33-2.68.49.02.13.04.25.06.38.88-.14,1.77-.28,2.65-.41Z"/>
        <path class="cls-1" d="m41.6,22.45c-.17-.72-.59-1.48-.47-2.15.22-1.27.83-2.43,2.5-3.17-1.04,1.82-2.23,3.27-1.55,5.24-.16.03-.32.05-.48.08Z"/>
        <path class="cls-1" d="m35.61,37.17c.84.3,1.51.54,2.22.8-1.14.84-1.95.6-2.22-.8Z"/>
        <path class="cls-3" d="m34.9,50.11c.39.28.76.58,1.16.82.41.24.85.42,1.64.81-.87.1-1.39.17-1.93.23,1.88,1.38,2.83,1.17,3.77-.71.22-.45.73-.75,1.11-1.11.09.49.29.99.26,1.48-.09,1.58-.27,3.16-.45,5.25-.26.65-.73,1.85-1.28,3.23-.76-1.34.34-3.25-1.54-4.05v2.34h-5.52c1.39,2.61,3.55,4.69,2.97,7.81.17-.25.32-.52.51-.75,1.23-1.51,2.36-3.12,3.73-4.49,1.09-1.1,3.11-.53,3.74.94.13.31-.04.9-.28,1.18-.32.39-.8.77-1.28.87-1.9.41-2.36,1.88-2.71,3.45-.17.77-.25,1.56-.44,2.32-.2.8-.5,1.57-.76,2.36-.2-.02-.4-.03-.59-.05-.08-.69-.21-1.37-.21-2.06,0-.73.11-1.47-.02-2.22-.14,1.3-.29,2.6-.43,3.89-.13.04-.26.08-.39.13-.43-.94-.85-1.87-1.26-2.76-1.25,1.53-1.38,4.66-.24,7.05l.02-.03c-1.19-.21-1.44-1.19-1.64-2.13-.58-2.68-1.11-5.37-1.67-8.06-.1-.49-.25-.97-.66-1.41.12,1.48.24,2.96.37,4.45-1.24-2.18-1.85-4.47-1.4-6.93.14-.03.24-.09.29-.06.15.08.28.2.36.26,1.59-1.49.71-3.29.67-5.03-.05-1.85.13-3.7.15-5.55.02-1.76,1.94-2.53,3.95-1.43l-.04-.04Z"/>
        <path class="cls-3" d="m47.88,50.68c1.68,2.34,3.05,3.2,5.22.92-.46.03-.86.06-1.31.09.59-1.3,2.55-2.3,3.93-2.06.81.14,1.66.2,2.41.5.57.24,1.42.8,1.42,1.23.04,2.45-.24,4.89-1.54,7.07-.08.14-.25.22-.61.51.31-1.38.56-2.52.81-3.65-.08-.07-.15-.13-.23-.2-.53.54-1.06,1.1-1.61,1.62-.51.48-1.09.87-1.56,1.38-.27.29-.28.82-.55,1.09-.46.46-.99.92-1.59,1.16-.24.1-.9-.31-1.05-.64-.6-1.3-.83-2.66-.23-4.06.13-.29.18-.62.27-.93-.14-.07-.27-.14-.41-.21-.46.79-.95,1.55-1.36,2.37-.21.42-.15,1-.4,1.37-.22.32-.71.6-1.09.61-.29.01-.67-.38-.88-.67-.46-.64-.83-1.34-1.28-2.08.91-.32.75-1.13.41-2.05-.21-.57-.28-1.19-.4-1.79-.35-1.84-.2-1.98,1.66-1.57l-.04-.03Z"/>
        <path class="cls-3" d="m41.93,72.12c.17.57.33,1.13.61,2.08-1.39-.89-3.09-1.03-3.27-2.62-.27-2.44.73-4.4,3.29-5.36-.2-.15-.27-.23-.37-.28-.37-.2-.75-.39-1.12-.59.44-.02.87-.08,1.31-.06,1.11.05,2.21.12,3.63.21-.62.39-.99.62-1.36.85,1.64-.02,2.97.62,3.45,2.14.43,1.36.44,2.85.63,4.28-.14-.04-.28-.07-.42-.11-.44.1-.88.21-1.43.34-.07-.16-.19-.41-.3-.66-1.74,3.77-3.18,3.03-4.64-.21Z"/>
        <path class="cls-3" d="m43.31,74.84c1.56.71,2.13,1.81,1.77,3.08-.32,1.1-1.1,2.06-1.86,3.4h8.21c-1.28,3.34-3.66,4.25-6.51,4.32-2.17.05-4.38.11-6.27-1.29-.72-.54-1.04-3.44-.42-4,.15-.14.48-.14.71-.1,2.79.44,4.86-1.61,4.46-4.43-.03-.25-.05-.5-.1-.98Z"/>
        <path class="cls-3" d="m53.32,30.71c.38,1.75-1.18,2.28-2.44,2.89-1.45.71-3.07,1.07-4.44-.15-1.38-1.24-1.61-2.84-.93-4.56.35-.89.7-1.78,1.1-2.65.61-1.32,1.58-1.71,2.93-1.23,2.75.99,3.81,2.52,3.77,5.7Z"/>
        <path class="cls-3" d="m25.63,78.91c.31,2.28,1.74,3.78,3.47,5.04,5.04,3.7,10.09,7.38,15.15,11.06,1.85,1.34,3.88,2.21,6.35,1.94-.98.92-2.54,1.04-3.76.5-4.43-1.98-8.27-4.85-12.05-7.84-1.88-1.49-3.84-2.89-5.73-4.36-1.01-.79-2.21-1.5-2.88-2.54-.66-1.02-.77-2.41-1.12-3.64.19-.05.38-.11.57-.16Z"/>
        <path class="cls-3" d="m57.66,43.8c-1.52-2.1-2.08-4.13-2.09-6.36-.01-2.74-.04-5.48-.18-8.22-.04-.79-.51-1.55-.76-2.32-.09-.29-.13-.6-.19-.9.33.12.85.14.96.36.76,1.54,1.63,3.06,2.09,4.7.86,3.04-.15,6.17.15,9.25.1,1.02.02,2.06.02,3.49Z"/>
        <path class="cls-3" d="m44.64,46.62c-.21,3-.44,5.89-.61,8.8-.03.54.24,1.1.25,1.65.02.85,0,1.7-.14,2.54-.03.23-.52.55-.77.53-.25-.02-.53-.38-.7-.66-.13-.21-.15-.51-.14-.76.13-3.17.28-6.33.39-9.5.01-.41-.09-.86-.25-1.25-.34-.88-.24-1.36.86-1.25.41.04.85-.08,1.09-.1Z"/>
        <path class="cls-3" d="m57.02,44.86s-.09.07-.1.06c-2.9-2.11-6.03-1.53-9.19-.85-.44.09-.96-.22-1.45-.34.26-.5.39-1.19.8-1.47,3.36-2.29,8.33-.96,9.94,2.6Z"/>
        <path class="cls-3" d="m59.12,45.13c0-2.73.07-5.47-.03-8.19-.05-1.24-.47-2.46-.67-3.7-.12-.72-.14-1.46-.22-2.18-.04-.39-.07-.8-.19-1.17-.23-.66-.55-1.28-.8-1.94-.7-1.83-1.48-3.61-3.5-4.48l.25-.3c.61.36,1.34.6,1.81,1.1,2.05,2.12,3.58,4.54,3.71,7.6.16,4.05.28,8.11.4,12.16.01.37-.1.75-.16,1.12-.2,0-.4-.01-.6-.02Z"/>
        <path class="cls-3" d="m38.08,86.34c4.65,1.71,9.43,2.32,14.32,1.91.01.16.02.32.03.48-1.51.14-3.02.37-4.53.41-1.17.03-2.34-.25-3.52-.26-.92-.01-1.94-.15-2.56.89-.09.16-.57.2-.81.12-.62-.2-1.22-.47-1.81-.76-.22-.11-.48-.3-.56-.51-.2-.61-.32-1.24-.57-2.28Z"/>
        <path class="cls-3" d="m39.46,79c.68-.45,1.15-.76,1.62-1.07-.05-.04-.1-.08-.15-.11-.96.35-1.9.73-2.88,1.02-.26.08-.6-.14-.91-.22.14-.27.21-.67.44-.8,1.31-.75,2.51-1.57,3.08-3.08.18-.49,1.75-.04,2.12.72.5,1.03.28,2.07-.46,2.94-.63.74-1.35,1.4-2.84.6Z"/>
        <path class="cls-3" d="m50.19,80.16c-1.4.73-2.62.53-3.62-.53-1.03-1.08-1.25-2.54-.52-3.71.3-.48.65-.94,1.07-1.31.25-.22.67-.24,1.01-.35.07.34.21.68.2,1.02,0,.34-.17.67-.23,1.01-.33,1.76.06,2.51,2.09,3.86Z"/>
        <path class="cls-3" d="m34.6,71.06c1.02,1.66,2.11,3.12,4.33,3-.35.85.5,1.94-.93,2.28-1.27.3-2.66-.12-3.27-1.29-.65-1.25-.56-2.56-.13-3.98Z"/>
        <path class="cls-3" d="m30.88,72.26c.36,1.01.99,2.02,1.04,3.05.12,2.54-.02,5.1-.05,7.65-.21,0-.42.02-.63.02-.15-2.72-.3-5.44-.45-8.16-.13,0-.25-.01-.38-.02l-.49.95-.35-.06c.19-1.1.39-2.21.58-3.31.24-.04.49-.07.73-.11Z"/>
        <path class="cls-3" d="m49.91,74.59c.5.96.77,1.99,1.44,2.63.63.6,1.66.78,2.51,1.15-1.25,1.24-3.1,1.25-4.26.02-.94-1-.84-2.75.31-3.8Z"/>
        <path class="cls-3" d="m54.71,88.39c-.07-1.71-.17-3.41-.2-5.12-.02-.82,0-1.67.16-2.47.1-.55.45-1.06.69-1.59.2.05.4.1.6.16-.26,3-.53,6-.79,9-.15,0-.3.02-.45.02Z"/>
        <path class="cls-3" d="m36.7,87.06c-.32-2.69-.64-5.39-.97-8.16,1.31.63,1.62,1.53,1.52,2.81-.13,1.77-.03,3.55-.03,5.33-.17,0-.35.01-.52.02Z"/>
        <path class="cls-3" d="m51.13,74.17c1.29.97,2.6,1.96,3.88,2.91-.65.51-1.99.45-2.97-.28-1-.74-1.31-1.7-.91-2.64Z"/>
        <path class="cls-3" d="m58.09,49.3c-1.63-1.18-3.28-2.37-4.94-3.57,1.88-.59,4.86,1.59,4.94,3.57Z"/>
        <path class="cls-3" d="m44.39,94.21c3.65,1.06,6.82.72,9.88-.77-2.19,1.8-7.23,3.19-9.88.77Z"/>
        <path class="cls-3" d="m47.92,50.72c-.91-.62-.75-1.24-.02-1.89,1.41,1.71,2.92,1.73,4.35-.05.2.29.55.59.5.78-.07.27-.39.56-.68.68-1.35.58-2.74.88-4.2.44,0,0,.04.03.04.03Z"/>
        <path class="cls-3" d="m34.49,76.06c.38.34.75.69.94.85-.2.52-.53,1-.52,1.47.05,1.77.22,3.54.19,5.34-.43-2.35-.87-4.71-1.32-7.17.1-.07.42-.29.74-.52,0,0-.02.02-.02.02Z"/>
        <path class="cls-3" d="m34.94,50.15c.02-.44.04-.87.06-1.31.13-.04.26-.08.39-.11.37,1.28,1.35,1.56,2.37,1.34.6-.13,1.1-.74,1.8-1.24.07.15.43.58.35.9-.07.31-.61.73-.93.72-1.36-.04-2.72-.21-4.08-.34,0,0,.04.04.04.04Z"/>
        <path class="cls-3" d="m54.04,48.76c-1.42-.47-2.6-1.14-3.79-1.18-1.1-.04-2.22.6-3.32.93.42-.78,1.23-1.38,2.31-1.59,1.88-.37,3.42.28,4.8,1.84Z"/>
        <path class="cls-3" d="m39.6,47.62c-2.42-.81-4.4.39-6.64,1.64,1.7-2.34,4.91-3.06,6.64-1.64Z"/>
        <path class="cls-3" d="m42.79,43.31c.59-.48.98-.79,1.37-1.11.21.42.65.88.58,1.25-.07.37-.64.65-.99.97-.27-.31-.54-.61-.97-1.11Z"/>
        <path class="cls-3" d="m50.24,90.86l-5.43-1.29c.02-.1.05-.19.07-.29,1.82.44,3.65.88,5.47,1.32-.04.09-.07.17-.11.26Z"/>
        <path class="cls-3" d="m44.56,58.98c.35-.49.69-.99,1.04-1.48.19.2.57.5.53.58-.25.48-.6.92-.92,1.37-.22-.16-.44-.31-.65-.47Z"/>
        <path class="cls-3" d="m39.08,45.72q1.11-.98,2.15.18c-.6-.05-1.21-.1-2.15-.18Z"/>
        <path class="cls-3" d="m54.17,89.68c-.88.14-1.77.28-2.65.41-.02-.13-.04-.25-.06-.38.89-.16,1.79-.33,2.68-.49.01.15.02.3.03.46Z"/>
      </g>
    </g>
    <path class="cls-1" d="m61.1,44.25c1.11-1.12,2.19-2.27,3.34-3.35,1.36-1.27,2.42-2.67,2.19-4.65-.08-.69-.35-1.36-.36-2.09,1.1,1.32,1.15,2.92.99,4.46-.06.6-.81,1.18-1.34,1.67-1.51,1.41-3.08,2.76-4.62,4.14-.07-.06-.13-.13-.2-.19Z"/>
  </g>
  <path class="cls-2" d="m262.45,83.67c-.21-.35-.62-.43-.9-.17-.95.86-1.94,1.76-3.16,2.42-1.33.72-2.82,1.07-4.54,1.07-3.87,0-5.76-1.72-7.77-3.55-2.09-1.9-4.25-3.86-8.54-3.86s-6.45,1.96-8.54,3.86c-2,1.82-3.9,3.54-7.75,3.55-3.85,0-5.74-1.73-7.75-3.55-2.09-1.9-4.25-3.86-8.54-3.86s-6.45,1.96-8.53,3.85c-.04.02-.08.03-.12.07-.95.86-1.94,1.76-3.16,2.42-.99.53-2.07.86-3.27,1-.22.02-.46.03-.7.04-.19,0-.36.03-.56.03-3.85,0-5.75-1.73-7.75-3.55-.04-.03-.08-.05-.12-.07-2.07-1.88-4.23-3.79-8.46-3.79s-6.45,1.96-8.54,3.86c-2.01,1.82-3.91,3.55-7.77,3.55s-5.76-1.72-7.77-3.55c-.29-.26-.69-.19-.9.17-.21.35-.15.85.13,1.11,2.09,1.9,4.25,3.86,8.54,3.86s6.45-1.96,8.54-3.86c2.01-1.82,3.91-3.55,7.77-3.55s5.76,1.72,7.77,3.55c2.09,1.9,4.25,3.86,8.54,3.86,0,0,.01,0,.02,0,0,0,.01,0,.02,0,4.29,0,6.45-1.96,8.54-3.86,2.01-1.82,3.91-3.55,7.77-3.55s5.67,1.64,7.63,3.42c.03.04.06.09.1.13,2.09,1.9,4.25,3.86,8.54,3.86,0,0,.02,0,.02,0s.02,0,.02,0c4.29,0,6.51-2.02,8.47-3.8.04-.04.07-.09.1-.14,1.98-1.8,3.88-3.47,7.69-3.47s5.76,1.72,7.77,3.55c2.09,1.9,4.25,3.86,8.54,3.86s6.51-2.02,8.47-3.8c.29-.26.35-.76.14-1.11Z"/>
  <path class="cls-2" d="m262.45,91.54c-.21-.35-.62-.43-.9-.17-.95.86-1.94,1.76-3.16,2.42-1.33.72-2.82,1.07-4.54,1.07-3.87,0-5.76-1.72-7.77-3.55-2.09-1.9-4.25-3.86-8.54-3.86s-6.45,1.96-8.54,3.86c-2,1.82-3.9,3.54-7.75,3.55-3.85,0-5.74-1.73-7.75-3.55-2.09-1.9-4.25-3.86-8.54-3.86s-6.45,1.96-8.53,3.85c-.04.02-.08.03-.12.07-.95.86-1.94,1.76-3.16,2.42-.99.53-2.07.86-3.27,1-.22.02-.46.03-.7.04-.19,0-.36.03-.56.03-3.85,0-5.75-1.73-7.75-3.55-.04-.03-.08-.05-.12-.07-2.07-1.88-4.22-3.79-8.46-3.79s-6.45,1.96-8.54,3.86c-2.01,1.82-3.91,3.55-7.77,3.55s-5.76-1.72-7.77-3.55c-.29-.26-.69-.19-.9.17-.21.35-.15.85.13,1.11,2.09,1.9,4.25,3.86,8.54,3.86s6.45-1.96,8.54-3.86c2.01-1.82,3.91-3.55,7.77-3.55s5.76,1.72,7.77,3.55c2.09,1.9,4.25,3.86,8.54,3.86,0,0,.01,0,.02,0,0,0,.01,0,.02,0,4.29,0,6.45-1.96,8.54-3.86,2.01-1.82,3.91-3.55,7.77-3.55s5.67,1.64,7.63,3.42c.03.04.06.09.1.13,2.09,1.9,4.25,3.86,8.54,3.86,0,0,.02,0,.02,0s.02,0,.02,0c4.29,0,6.51-2.02,8.47-3.8.04-.04.07-.09.1-.14,1.98-1.8,3.88-3.47,7.69-3.47s5.76,1.72,7.77,3.55c2.09,1.9,4.25,3.86,8.54,3.86s6.51-2.02,8.47-3.8c.29-.26.35-.76.14-1.11Z"/>
  <g>
    <path class="cls-3" d="m95.93,29.14c-.42-.33-1.02-.55-1.82-.69-.73-.13-1.72-.2-2.93-.22l-5.08-.07c-.9-.01-1.63-.04-2.16-.1-.58-.06-.87-.16-1-.24-.14-.08-.22-.18-.26-.33-.06-.23-.09-.56-.09-.98,0-.49.04-.87.13-1.13.06-.18.17-.3.36-.38.18-.08.53-.18,1.21-.23.61-.04,1.42-.06,2.41-.06h3.56c.83,0,1.52,0,2.08.02.49,0,.88.07,1.15.19.21.09.35.25.44.51.12.33.19.85.19,1.55v.5h2.63v-.5c0-1.05-.11-1.86-.32-2.48-.23-.67-.64-1.18-1.19-1.51-.52-.31-1.19-.5-2.04-.58-.79-.07-1.78-.11-2.94-.11h-3.64c-1.29,0-2.37.06-3.19.17-.88.12-1.56.33-2.06.65-.54.33-.92.8-1.12,1.39-.19.54-.28,1.19-.28,2,0,.73.07,1.33.2,1.83.15.56.46,1.02.91,1.36.43.32,1.03.54,1.82.68.74.13,1.71.2,2.9.22l4.73.07c1,.02,1.79.05,2.37.09.64.05.96.15,1.11.22.15.08.24.18.28.33.07.25.1.6.1,1.06,0,.53-.04.95-.11,1.26-.05.22-.16.38-.33.49-.15.1-.46.23-1.09.3-.58.06-1.37.09-2.36.09h-3.9c-.89,0-1.64-.02-2.21-.05-.51-.03-.89-.12-1.15-.27-.21-.12-.36-.34-.46-.65-.12-.39-.17-.96-.17-1.71v-.5h-2.63v.5c0,1.09.11,1.94.33,2.61.24.72.65,1.27,1.21,1.64.53.35,1.23.58,2.1.7.8.1,1.81.16,2.99.16h3.98c1.3,0,2.37-.07,3.18-.21.87-.15,1.53-.4,2.01-.77.5-.38.84-.89,1.02-1.51.16-.56.24-1.25.24-2.06,0-.74-.06-1.37-.19-1.87-.14-.57-.44-1.04-.89-1.38Z"/>
    <polygon class="cls-3" points="107.46 33.94 101.5 22.6 98.49 22.6 106.07 36.67 108.85 36.67 116.41 22.6 113.43 22.6 107.46 33.94"/>
    <polygon class="cls-3" points="121.14 30.68 131.87 30.68 131.87 28.32 121.14 28.32 121.14 24.96 132.34 24.96 132.34 22.6 118.5 22.6 118.5 36.67 132.58 36.67 132.58 34.31 121.14 34.31 121.14 30.68"/>
    <polygon class="cls-3" points="134.11 24.96 140.65 24.96 140.65 36.67 143.28 36.67 143.28 24.96 149.82 24.96 149.82 22.6 134.11 22.6 134.11 24.96"/>
    <rect class="cls-3" x="152.44" y="22.6" width="2.63" height="14.08"/>
    <polygon class="cls-3" points="179.53 33.1 167.06 22.6 164.67 22.6 164.67 36.67 167.31 36.67 167.31 26.09 179.78 36.67 182.16 36.67 182.16 22.6 179.53 22.6 179.53 33.1"/>
    <rect class="cls-3" x="185.62" y="22.6" width="2.63" height="14.08"/>
    <polygon class="cls-3" points="208.52 22.6 204.31 22.6 195.86 28.32 194.34 28.32 194.34 22.6 191.71 22.6 191.71 36.67 194.34 36.67 194.34 30.68 195.87 30.68 204.58 36.67 208.78 36.67 198.53 29.5 208.52 22.6"/>
    <path class="cls-3" d="m225.77,24.38c-.32-.57-.77-1.02-1.33-1.33-.53-.29-1.2-.49-1.98-.59-.75-.1-1.65-.14-2.69-.14h-3.43c-1.04,0-1.94.05-2.69.14-.78.1-1.45.3-1.98.59-.56.3-1.01.75-1.33,1.33-.31.55-.53,1.25-.65,2.09-.12.81-.17,1.81-.17,2.99v.34c0,1.43.1,2.62.29,3.52.2.97.58,1.73,1.11,2.26.53.53,1.26.9,2.18,1.09.85.18,1.95.27,3.25.27h3.43c1.3,0,2.4-.09,3.25-.27.92-.19,1.65-.56,2.18-1.09.53-.53.9-1.29,1.11-2.26.19-.9.29-2.09.29-3.52v-.34c0-1.18-.06-2.18-.17-2.99-.12-.84-.34-1.55-.65-2.09Zm-6,10.15h-3.43c-.79,0-1.46-.03-2-.08-.49-.05-.88-.15-1.17-.31-.26-.14-.45-.34-.59-.63-.16-.33-.27-.78-.33-1.36-.07-.62-.1-1.41-.1-2.35v-.34c0-.97.03-1.79.1-2.42.06-.59.17-1.05.33-1.36.14-.28.32-.47.57-.6.29-.14.69-.24,1.18-.28.54-.05,1.22-.07,2.01-.07h3.43c.79,0,1.46.02,2.01.07.49.04.89.14,1.18.28.25.12.44.32.58.6.16.32.27.78.33,1.36.07.62.1,1.43.1,2.42v.34c0,.95-.03,1.74-.1,2.35-.06.58-.17,1.03-.33,1.36-.14.29-.33.49-.59.63-.29.16-.68.26-1.17.31-.54.05-1.21.08-2,.08Z"/>
    <polygon class="cls-3" points="232.14 22.6 229.5 22.6 229.5 36.67 242.49 36.67 242.49 34.31 232.14 34.31 232.14 22.6"/>
    <path class="cls-3" d="m254.36,22.6h-2.75l-8.21,14.08h3.07l1.63-3h9.76l1.63,3h3.07l-8.21-14.08Zm-4.87,8.72l3.5-6.12,3.5,6.12h-7Z"/>
  </g>
  <g>
    <polygon class="cls-3" points="87.85 82.86 85.56 82.86 79.98 84.67 81.02 87.19 84.89 85.9 84.89 92.96 80.39 92.96 80.39 95.68 91.78 95.68 91.78 92.96 87.85 92.96 87.85 82.86"/>
    <path class="cls-3" d="m106.52,83.54c-.46-.35-1.07-.58-1.88-.72-.73-.13-1.64-.19-2.8-.19h-2.11c-1.16,0-2.07.06-2.8.19-.8.14-1.42.38-1.88.72-.49.37-.83.87-1,1.49-.14.52-.21,1.15-.21,1.87,0,.65.06,1.19.18,1.67.15.57.45,1.03.9,1.39.42.33.99.57,1.74.7.67.13,1.52.19,2.6.19h3.88c.64,0,1.19-.07,1.66-.21v1.16c0,.48-.05.75-.1.89-.02.08-.06.14-.17.19-.1.05-.35.15-.9.2-.51.05-1.18.07-2.03.07h-1.6c-.85,0-1.52-.02-2.02-.05-.55-.04-.78-.12-.92-.25-.04-.14-.08-.42-.08-.91v-.77h-2.95v.77c0,.73.07,1.32.22,1.81.18.59.53,1.06,1.03,1.4.46.3,1.07.51,1.86.62.71.1,1.64.15,2.77.15h1.75c1.13,0,2.08-.06,2.82-.18.81-.13,1.44-.35,1.92-.67.52-.35.89-.83,1.08-1.42.17-.51.26-1.12.26-1.85v-4.9c0-.74-.07-1.35-.22-1.87-.17-.61-.51-1.11-1-1.48Zm-1.91,4.34c-.06.04-.27.13-.8.18-.49.04-1.15.07-2,.07h-2.04c-.85,0-1.51-.02-2-.07-.53-.05-.74-.14-.8-.18-.06-.04-.08-.07-.1-.13-.03-.13-.08-.39-.08-.85,0-.43.03-.77.08-1,.03-.12.08-.18.14-.22.06-.04.27-.14.79-.2.47-.05,1.14-.08,1.99-.08h1.97c.85,0,1.52.03,1.99.08.53.06.73.16.8.2.06.04.11.09.14.22.04.17.09.48.09,1,0,.46-.04.72-.08.85-.02.06-.04.09-.1.13Z"/>
    <path class="cls-3" d="m122.11,83.54c-.46-.35-1.07-.58-1.88-.72-.73-.13-1.64-.19-2.8-.19h-2.11c-1.16,0-2.07.06-2.8.19-.8.14-1.42.38-1.88.72-.49.37-.83.87-1,1.49-.14.52-.21,1.15-.21,1.87,0,.65.06,1.19.18,1.67.15.57.45,1.03.9,1.39.42.33.99.57,1.74.7.67.13,1.52.19,2.6.19h3.88c.64,0,1.19-.07,1.66-.21v1.16c0,.48-.05.75-.1.89-.02.08-.06.14-.17.19-.1.05-.35.15-.9.2-.51.05-1.18.07-2.03.07h-1.6c-.85,0-1.52-.02-2.02-.05-.55-.04-.78-.12-.92-.25-.04-.14-.08-.42-.08-.91v-.77h-2.95v.77c0,.73.07,1.32.22,1.81.18.59.53,1.06,1.03,1.4.46.3,1.07.51,1.86.62.71.1,1.64.15,2.77.15h1.75c1.13,0,2.08-.06,2.82-.18.81-.13,1.44-.35,1.92-.67.52-.35.89-.83,1.08-1.42.17-.51.26-1.12.26-1.85v-4.9c0-.74-.07-1.35-.22-1.87-.17-.61-.51-1.11-1-1.48Zm-1.91,4.34c-.06.04-.27.13-.8.18-.49.04-1.15.07-2,.07h-2.04c-.85,0-1.51-.02-2-.07-.53-.05-.74-.14-.8-.18-.06-.04-.08-.07-.1-.13-.03-.13-.08-.39-.08-.85,0-.43.03-.77.08-1,.03-.12.08-.18.14-.22.06-.04.27-.14.79-.2.47-.05,1.14-.08,1.99-.08h1.97c.85,0,1.52.03,1.99.08.53.06.73.16.8.2.06.04.11.09.14.22.04.17.09.48.09,1,0,.46-.04.72-.08.85-.02.06-.04.09-.1.13Z"/>
    <polygon class="cls-3" points="134.35 92.96 134.35 82.86 132.06 82.86 126.48 84.67 127.52 87.19 131.39 85.9 131.39 92.96 126.88 92.96 126.88 95.68 138.28 95.68 138.28 92.96 134.35 92.96"/>
  </g>
  <g>
    <path class="cls-3" d="m94.29,55.93c-.44-.32-1.04-.53-1.84-.66-.74-.12-1.72-.18-2.91-.18h-8.53v12.99h2.5v-4.62h5.98c1.2,0,2.18-.07,2.92-.2.8-.14,1.41-.37,1.85-.69.47-.34.79-.8.96-1.35.15-.49.22-1.09.22-1.79v-.31c0-.72-.07-1.34-.21-1.84-.16-.56-.48-1.02-.94-1.35Zm-10.78,1.46h5.74c.91,0,1.65.02,2.19.07.61.05.91.16,1.06.24.17.09.27.21.32.38.08.25.12.6.12,1.04v.31c0,.41-.04.74-.12.98-.05.17-.16.3-.33.4-.15.08-.46.2-1.06.27-.54.06-1.27.09-2.18.09h-5.74v-3.78Z"/>
    <polygon class="cls-3" points="100.11 55.09 97.61 55.09 97.61 68.08 109.6 68.08 109.6 65.83 100.11 65.83 100.11 55.09"/>
    <rect class="cls-3" x="111.69" y="55.09" width="2.5" height="12.99"/>
    <polygon class="cls-3" points="124.27 65.45 118.83 55.09 115.97 55.09 122.97 68.08 125.57 68.08 132.55 55.09 129.72 55.09 124.27 65.45"/>
    <path class="cls-3" d="m140.56,55.09l-7.58,12.99h2.92l1.5-2.75h8.9l1.5,2.75h2.92l-7.58-12.99h-2.57Zm-1.85,8l3.14-5.49,3.14,5.49h-6.27Z"/>
    <path class="cls-3" d="m166.15,55.68c-.51-.34-1.18-.57-1.99-.68-.76-.1-1.69-.16-2.78-.16h-3.15c-.95,0-1.78.04-2.47.13-.72.09-1.34.28-1.83.54-.52.28-.94.7-1.24,1.23-.28.5-.49,1.16-.6,1.93-.11.75-.16,1.67-.16,2.75v.31c0,1.31.09,2.4.26,3.23.19.89.53,1.6,1.03,2.09.49.49,1.17.84,2.02,1.01.78.17,1.79.25,2.99.25h3.15c1.09,0,2.02-.05,2.78-.14.81-.1,1.48-.32,1.99-.65.54-.35.94-.87,1.18-1.55.22-.63.33-1.44.33-2.46v-.5h-2.5v.5c0,.69-.06,1.23-.18,1.59-.09.29-.24.49-.45.6-.25.14-.62.23-1.1.26-.54.04-1.23.05-2.05.05h-3.15c-.72,0-1.34-.03-1.83-.08-.44-.05-.8-.14-1.06-.28-.23-.12-.4-.3-.52-.56-.14-.3-.25-.71-.3-1.23-.06-.56-.09-1.29-.09-2.15v-.31c0-.89.03-1.64.09-2.21.06-.53.16-.95.3-1.24.12-.24.29-.42.51-.53.26-.13.62-.22,1.07-.25.49-.04,1.1-.06,1.84-.06h3.15c.83,0,1.52.02,2.04.06.47.04.84.13,1.09.28.21.12.36.33.46.63.12.37.18.91.18,1.61v.5h2.5v-.5c0-1.02-.11-1.83-.33-2.47-.24-.68-.63-1.21-1.18-1.57Z"/>
    <polygon class="cls-3" points="160.75 54.81 163.66 50.44 161.85 49.09 159.73 52.38 157.61 49.09 155.8 50.44 158.71 54.81 160.75 54.81"/>
    <polygon class="cls-3" points="185.86 55.09 181.85 55.09 174.1 60.34 172.76 60.34 172.76 55.09 170.26 55.09 170.26 68.08 172.76 68.08 172.76 62.58 174.11 62.58 182.1 68.08 186.09 68.08 176.64 61.46 185.86 55.09"/>
    <rect class="cls-3" x="187.09" y="55.09" width="2.5" height="12.99"/>
    <polygon class="cls-3" points="213.9 55.09 209.9 55.09 202.14 60.34 200.81 60.34 200.81 55.09 198.31 55.09 198.31 68.08 200.81 68.08 200.81 62.58 202.15 62.58 210.15 68.08 214.14 68.08 204.68 61.46 213.9 55.09"/>
    <polygon class="cls-3" points="217.63 55.09 215.14 55.09 215.14 68.08 227.13 68.08 227.13 65.83 217.63 65.83 217.63 55.09"/>
    <path class="cls-3" d="m241.71,61.74c0,.86-.03,1.58-.09,2.15-.05.52-.16.93-.3,1.23-.13.25-.3.44-.53.56-.26.14-.62.23-1.06.28-.49.05-1.11.08-1.83.08h-2.83c-.72,0-1.33-.03-1.82-.08-.44-.05-.8-.14-1.06-.28-.23-.12-.4-.31-.53-.56-.14-.29-.25-.71-.3-1.23-.06-.56-.09-1.29-.09-2.15v-6.65h-2.5v6.65c0,1.31.09,2.4.26,3.23.19.89.53,1.6,1.03,2.09.49.49,1.17.84,2.02,1.01.78.17,1.79.25,2.99.25h2.83c1.2,0,2.21-.08,2.99-.25.85-.18,1.53-.52,2.02-1.01.49-.49.84-1.2,1.03-2.09.18-.83.26-1.92.26-3.23v-6.65h-2.5v6.65Z"/>
    <path class="cls-3" d="m261.17,61.74c-.21-.29-.47-.53-.79-.71.14-.12.27-.26.39-.42.39-.55.58-1.24.58-2.04,0-.88-.17-1.59-.5-2.09-.34-.53-.87-.9-1.57-1.11-.62-.18-1.42-.27-2.37-.27h-10.06v12.99h9.39c1,0,1.86-.05,2.54-.15.73-.11,1.32-.31,1.76-.6.48-.31.82-.75,1.02-1.32.18-.51.28-1.16.28-1.93,0-.93-.23-1.71-.68-2.34Zm-4.92,4.09h-6.89v-3.5h6.49c.55,0,1.06.02,1.53.04.43.03.81.1,1.13.22.27.1.47.25.62.47.15.22.22.56.22,1.01,0,.59-.07.92-.13,1.09-.07.19-.17.31-.33.39-.21.11-.51.18-.91.21-.46.04-1.04.05-1.73.05Zm-.41-5.75h-6.49v-2.75h7.56c.59,0,1.05.03,1.37.09.31.06.39.19.42.24.06.09.15.33.15.9,0,.71-.16.99-.25,1.1-.17.19-.44.3-.83.34-.49.05-1.14.08-1.93.08Z"/>
  </g>
</svg>