<?xml version="1.0" encoding="utf-8"?>
<!-- Generator: Adobe Illustrator 28.2.0, SVG Export Plug-In . SVG Version: 6.00 Build 0)  -->
<svg version="1.1" id="Layer_1" xmlns="http://www.w3.org/2000/svg" xmlns:xlink="http://www.w3.org/1999/xlink" x="0px" y="0px"
	 viewBox="0 0 262.6 103.7" style="enable-background:new 0 0 262.6 103.7;" xml:space="preserve">
<style type="text/css">
	.st0{fill:#FFCF03;}
	.st1{fill:#FFFFFF;}
	.st2{fill:#009AF3;}
	.st4{fill:#000000;}
</style>
<path id="Sara" class="st0" d="M14,39.7c16.5-8.6,33.4-16.6,50.6-23.9c-3.5-4.5-6.9-9-10.4-13.5c-7.9,7.2-17.4,12.2-26.4,17.9
	C18,26.5,9,33.5,1.9,42.8c-2.2,3-1.1,7.9,1.3,10.4c2.9,2.9,6.9,2.9,10.4,1.3C39.6,43,67.6,37,92.9,24c-2.9-4.9-5.8-9.9-8.7-14.8
	c-24.4,14-42,36.9-66.2,51C9.9,65,15.2,79,24.7,75.9c14.1-4.7,28.2-9.5,42.3-14.2c-2.2-5.2-4.4-10.4-6.6-15.7c-14.3,9-28.7,18-43,27
	c-3.6,2.3-5.2,6.8-3.5,10.7c1.8,4.2,5.8,5.7,10.1,5c16.3-2.6,32.5-5.2,48.8-7.7c-2.2-5.2-4.4-10.4-6.6-15.7
	C53.2,71.2,40.2,77.1,27.3,83c-8.2,3.7-3.5,15.8,4.3,16c12.1,0.3,24.3,0.4,36.4,0.2c11-0.1,11.1-17.3,0-17.1
	c-12.1,0.2-24.3,0.1-36.4-0.2c1.4,5.3,2.9,10.7,4.3,16C48.9,91.9,61.8,86,74.8,80.1c3.8-1.8,5.1-7.2,3.5-10.7
	c-1.8-4.2-5.8-5.7-10.1-5c-16.3,2.6-32.5,5.2-48.8,7.7c2.2,5.2,4.4,10.4,6.6,15.7c14.3-9,28.7-18,43-27c7.9-5,3-18.9-6.6-15.7
	c-14.1,4.7-28.2,9.5-42.3,14.2c2.2,5.2,4.4,10.4,6.6,15.7C51,60.9,68.6,38,92.9,24c9.6-5.5,1.1-19.8-8.7-14.8
	C59,22.2,30.9,28.2,5,39.8l11.7,11.7c5.9-7.8,14.5-13.2,22.7-18.3c9.3-5.8,18.7-11.4,26.8-18.7c3.1-2.8,3.2-8.1,0.7-11.2
	C64.1-0.4,60-0.7,55.9,1c-17.2,7.3-34,15.3-50.6,23.9C-4.5,30,4.2,44.8,14,39.7L14,39.7z"/>
<path id="Linija" class="st4" d="M262.6,4h-210c-0.9,0-1.7,0-2.6,0h-1v0c-1.5,0.1-3.1,0.2-4.7,0.4c-7.4,0.9-14.4,3.1-20.5,7.1
	c-4,2.6-7.6,5.9-10.9,9.3c-3.9,4-6.5,8.8-8.8,14c-3,7-4.3,14.2-4,21.6c0.4,11.7,4.5,22,11.9,31.2c0.7,0.9,1.6,1.6,2.4,2.4
	c1.1,1.1,2,0.7,2.8-0.5c-0.5-0.5-0.9-1-1.4-1.5c-1.2-1.3-2.5-2.7-3.6-4.1c-5.1-6.6-8-14-9.4-22.1c-1.6-9.3-0.6-18.4,3.1-27.1
	c2.3-5.5,5.8-10.2,10-14.6C21.4,14.3,28.1,10,36,7.7c4.7-1.4,8.6-1.9,13-2v0h2.3c0.9,0,1.8,0.1,2.7,0.1l1.8-0.1h206.8
	C262.6,5.8,262.6,4,262.6,4z"/>
<g id="Dzoni">
	<g>
		<path class="st1" d="M57,89.8c1.3-1.3-0.5-11.1,2.1-15.7c1.2-2.1,0.5-2.2,1.2-4.9c0.6-2.3,1.5-5.1,2-7.9c0.4-2.6,1.9-1.3,3.2-4.6
			c0.7-1.9,1.2-7.6,1.7-10.5c1.2-6.7,1-7.8,1-9.5c-0.1-6.5-0.1-9.8-1.4-12.4c-2.6-5.5-7.9-7.8-11.3-9.2c-3-1.2-8.7-3.6-15.3-1.3
			C35,15.6,32,19.4,31,20.7c-1.3,1.6-3.1,3.9-3.9,7.4c-1.1,4.6,0.4,7-0.8,14.9c-0.2,1.4-1.1,4.5-1.1,4.9
			C22.9,60.5,53.7,93.2,57,89.8L57,89.8z"/>
		<g>
			<path d="M29.8,89.5c-1.6-1.5-3.2-2.8-4.6-4.4c-0.8-0.9-1.2-2.1-1.6-3.2c-0.3-0.9,0-1.7,0.8-2.6c1-1.2,1.6-2.7,2.3-4.1
				c1-1.7,2-3.3,2.9-5c0.2-0.4,0.5-1,0.3-1.3c-1.1-1.8-0.5-3.9-1-5.9c-0.4-1.7-0.7-3.4-1.1-5.1c0.2,0.3,0.3,0.8,0.5,0.9
				c0.5,0.2,1.1,0.3,1.7,0.4c0-0.5,0.1-1,0.1-1.8c-0.6,0.4-0.9,0.5-1.2,0.7c-0.9-1.7-1.8-3.4-2.6-5c-0.1-0.1-0.1-0.2-0.1-0.4
				c-0.8-2.1-0.1-3.2,2.1-3.4c-0.3-0.3-0.7-0.6-1.1-0.6c-0.9,0.1-1.7,0.7-1.7,1.7c0,1.1,0.3,2.1,0.5,3.2c-1.5-1.8-1.5-3.8-0.9-6
				c1,0.5,2.3-0.8,3.2,0.4c0.6,0.9,1.1,1.9,1.7,3c0.3-1.3,0.6-2.7,0.8-4.2c0.1-1.1-0.1-2.2-0.1-3.4c0-0.1,0-0.3-0.1-0.4
				c-1.8-1.8-1.1-4.3-1.6-6.4c-0.6-2.6-0.9-5.2-1.3-7.9c0.1,0,0.2,0,0.3-0.1c0.3,1.7,0.6,3.4,1,5.1c0.2,0,0.3,0,0.5,0
				c0.1-0.8,0.4-1.6,0.4-2.4c0.1-2.1,0-4.2,1.3-6c0.3-0.5,0.9-0.8,1.2-1.2c0.9-1.1,1.7-2.3,2.6-3.4c0.3-0.4,0.7-0.9,1.1-1.3
				c0.1,0.1,0.2,0.2,0.4,0.3c-0.3,0.6-0.6,1.2-0.9,1.8c0.1,0.1,0.2,0.1,0.3,0.2c0.4-0.2,0.8-0.5,1.2-0.8c0.3,0.9,1.5,1.7,0.3,2.8
				c0.7-0.2,1.5-0.5,2.2-0.6c0.3,0,0.7,0.4,1,0.5c-0.3,0.2-0.5,0.6-0.8,0.7c-2.3,0.5-4.2,1.8-5.8,3.6c-1.2,1.4-1.2,3-1.4,4.6
				c-0.2,1.4-0.1,2.8-0.2,4.1c-0.3,3-0.6,6-0.9,9.2c2.3-2.6,5.2-2.5,8.2-2.1c0.3,0,0.8,0.2,1,0c0.5-0.3,1-0.6,1.1-1.1
				c0.1-0.3-0.3-1-0.7-1.2c-0.5-0.3-1.2-0.4-1.8-0.3c-2.4,0.2-4.7,0.5-6.5,2.5c-0.2-1.9,2.1-3.5,4.2-3.6c2.4,0,4.8,0,7.2-0.1
				c3.1,0,6.2,0,9.3-0.1c0.4,0,0.7-0.5,1.1-0.7c-0.3-0.3-0.5-0.9-0.8-1c-0.8-0.2-1.7-0.1-2.6-0.2c-3.5,0-7.1,0-10.6,0
				c0-0.2,0-0.3-0.1-0.5c1.1-0.3,2.2-0.8,3.4-0.9c1.4-0.1,2.8,0.4,4.2,0.3c1.9,0,3.8-0.2,5.5-0.6c0.7-0.2,1.2-1.3,1.7-2.1
				c-0.1-0.1-0.2-0.2-0.3-0.3c-0.4,0.1-0.9,0.2-1.3,0.4c-2.1,1.1-4.2,1.1-6.5,0.9c-1.8-0.2-3.7-0.2-5.4,0c-2.3,0.3-4.5,0.2-6.2-1.7
				c-0.4-0.4-0.6-1.1-0.9-1.6c0.1-0.1,0.2-0.2,0.3-0.3c0.5,0.4,1,0.8,1.6,1.1c0.7,0.3,1.5,0.9,2.1,0.8c1.5-0.4,3.1-0.9,4.4-1.8
				c1.2-0.8,0.5-2.3,0.5-3.5c0-1.5-0.2-3-0.3-4.2c0.9-0.4,1.4-0.7,2-0.9c0-0.1-0.1-0.2-0.2-0.3c0.6,0,1.3,0.1,1.9,0
				c1-0.1,1.1-0.7,0.5-1.5c-0.2-0.2-0.4-0.4-0.6-0.5c-1.7-1.3-1.9-2.1-1-4.1c-0.1,2.5,0.1,2.9,2.1,3.7c0.3,0.1,0.7,0,1,0
				c-0.1-0.4-0.1-0.8-0.3-1.1c-0.4-0.7-0.9-1.3-1.2-2c-0.1-0.2,0.3-0.6,0.5-0.9c0.3,0.2,0.8,0.3,0.9,0.6c1,2,1.2,2,3.4,1.2
				c-0.7-0.4-1.4-0.8-2.2-1.2c2.9-0.5,4.8,1.4,7.1,2.8c-0.2-0.6-0.5-1.1-0.7-1.6c0.7,0.1,1.7,1.3,3,3.7c0.4,0.3,1,0.5,1.2,0.9
				c0.5,1,0.7,2.1,1.1,3.2c0.1,0.4,0.2,0.9,0.4,1.4c1-1.5,0.8-3.4-0.3-6.3c0.4,0.6,1.1,1.1,1.2,1.7c0.5,2.4,0.6,4.9-0.5,7.2
				c-0.4,0.9-0.6,2-0.9,3c0.1,0.1,0.3,0.1,0.4,0.2c1.1-1.5,2.2-3.1,3.2-4.6c0.1,0,0.1,0,0.2,0.1C65,30,64.6,30.9,64,31.6
				c-1.2,1.5-2,3.2-2.4,5c0,0.3-0.1,0.5-0.1,0.8c0,0.1,0.1,0.2,0.3,0.6c1.3-3.3,4.8-5,5.1-8.7l0.4,0.1c0,0.5,0.2,1.2,0,1.6
				c-0.9,1.4-1.9,2.9-3.1,4.2c-2.2,2.5-3.2,5.3-3.3,8.6c0,0.1,0,0.2,0.1,0.5c0.3-0.2,0.5-0.3,0.9-0.5c-2,3.5-1.2,7.1-1.4,10.6
				c-0.2,2.2-1.1,4.1-2.7,5.5c-1.9,1.7-3.4,3.7-3.8,6.3c-0.5-0.9-0.8-2-1.5-2.5c-1.5-1-2.8-2.2-4.3-3.2c-0.6-0.4-1.7-0.5-2.4-0.3
				c-0.7,0.2-1.6,1-1.7,1.6c-0.1,1,0.7,1.8,1.8,1.9c0.8,0.1,1.7,0,2.5,0c0.4,0,0.7,0.1,1.1,0.4c-0.5,0-1.1-0.1-2-0.1
				c2.4,2.3,2.4,5.1,2.7,7.7c0.2,0,0.3,0,0.5,0c0.2-1.2,0.4-2.4,0.7-3.7c0,0,0.1,0,0.1,0c-0.1,1.6-0.2,3.2-0.2,4.8
				c0.8-0.9,1.8-2,2.7-3c0.1,0.2,0.3,0.6,0.5,1.2c0.4-0.7,0.7-1.2,1.1-1.9c0.3,0.5,0.6,0.8,0.9,1.4c0.3-0.5,0.5-1,0.7-1.4
				c0.2-0.4,0.4-0.9,0.8-1.2c-0.3,0.9-0.6,1.9-0.9,2.8c2.7-2.1,4.3-4.9,4.2-8.1c0-3.7,0.5-7.4,0.3-11c-0.1-2.1,0.7-3.7,2.4-5.2
				c-0.1,0.4-0.1,0.7-0.3,1.4c1.3-0.7,2.3-1.2,3.4-1.7c-0.4,3-0.7,6-1.2,8.9c-0.2,1.1-1,2-1.5,3c1.3-2.6,1.3-5.5,1.7-8.3
				c0.2-1.3-0.5-1.8-1.7-1.2c-1.8,0.8-2.5,2.8-1.7,5.2c1.2-1.4,0.1-4,2.8-5c-0.2,2.8-0.2,5.3-1.2,7.8c-0.3,0.8-0.8,1.6-2.1,0.8
				c0.2,0.5,0.3,1.1,0.5,1.6c0.5-0.2,1-0.5,1.5-0.7c0.1,0,0.1-0.1,0.2-0.2c-1.2,2-1.5,4.3-2,6.6c-0.1,0.5-0.6,0.9-0.8,1.4
				c-0.2,0.5-1.1,1.1-0.1,1.7c0.1,0,0.1,0.3,0,0.4c-0.5,1.1,0.1,2.7-1.2,3.5c-0.1,0.1-0.2,0.3-0.3,0.4c-0.4,1.8-2,1.4-3.2,1.8
				c0.9-1,2.7-1,3.1-2.9c-0.8,0.3-1.5,0.7-2.2,0.8c-0.8,0.2-1.6,0.2-2.5,0.2c-0.5,0-1.1-0.3-1.5-0.1c-0.4,0.3-0.7,0.9-0.9,1.5
				c-0.3,0.8,0.6,2,1.7,2.1c1.1,0.1,2.3-0.1,3.8-0.3c0.2,4.2,0.4,8.7,0.5,13.4c0.5-0.1,0.9-0.2,1.6-0.4c-1,1.5-1.9,2.8-2.9,4.1
				c-2.4,3.1-4.8,6.2-7.2,9.3c-0.5,0.7-1,0.8-1.8,0.4c-3.2-1.9-6.5-3.8-9.8-5.8 M47.9,50.7c-1.9-0.4-2-0.3-1.7,1.6
				c0.1,0.6,0.2,1.2,0.4,1.8c0.3,0.9,0.5,1.7-0.4,2c0.5,0.7,0.8,1.4,1.3,2.1c0.2,0.3,0.6,0.7,0.9,0.7c0.4,0,0.9-0.3,1.1-0.6
				c0.3-0.4,0.2-1,0.4-1.4c0.4-0.8,0.9-1.6,1.4-2.4c0.1,0.1,0.3,0.1,0.4,0.2c-0.1,0.3-0.1,0.6-0.3,0.9c-0.6,1.4-0.4,2.8,0.2,4.1
				c0.2,0.3,0.8,0.7,1,0.6c0.6-0.2,1.1-0.7,1.6-1.2c0.3-0.3,0.3-0.8,0.5-1.1c0.5-0.5,1-0.9,1.6-1.4c0.5-0.5,1.1-1.1,1.6-1.6
				c0.1,0.1,0.2,0.1,0.2,0.2c-0.2,1.1-0.5,2.3-0.8,3.7c0.4-0.3,0.5-0.4,0.6-0.5c1.3-2.2,1.6-4.6,1.5-7.1c0-0.4-0.8-1-1.4-1.2
				c-0.7-0.3-1.6-0.4-2.4-0.5c-1.4-0.2-3.3,0.8-3.9,2.1c0.5,0,0.8-0.1,1.3-0.1C50.9,53.9,49.5,53.1,47.9,50.7
				c1.4,0.4,2.8,0.1,4.2-0.5c0.3-0.1,0.6-0.4,0.7-0.7c0-0.2-0.3-0.5-0.5-0.8c-1.4,1.8-2.9,1.8-4.3,0C47.2,49.5,47,50.1,47.9,50.7
				L47.9,50.7z M34.9,50.2c-2-1.1-3.9-0.3-4,1.4c0,1.8-0.2,3.7-0.1,5.5c0,1.7,0.9,3.5-0.7,5c-0.1-0.1-0.2-0.2-0.4-0.3
				c0,0-0.2,0-0.3,0.1c-0.5,2.5,0.2,4.7,1.4,6.9c-0.1-1.5-0.2-3-0.4-4.4c0.4,0.4,0.6,0.9,0.7,1.4c0.6,2.7,1.1,5.4,1.7,8.1
				c0.2,0.9,0.5,1.9,1.6,2.1c-0.3,0.2-0.6,0.4-0.7,0.5c0.5,2.5,0.9,4.8,1.3,7.2c0-1.8-0.1-3.6-0.2-5.3c0-0.5,0.3-0.9,0.5-1.5
				c-0.2-0.2-0.6-0.5-0.9-0.8c-1.1-2.4-1-5.5,0.2-7.1c0.4,0.9,0.8,1.8,1.3,2.8c0.1,0,0.3-0.1,0.4-0.1c0.1-1.3,0.3-2.6,0.4-3.9
				c0.1,0.8,0,1.5,0,2.2c0,0.7,0.1,1.4,0.2,2.1c0.2,0,0.4,0,0.6,0.1c0.3-0.8,0.5-1.6,0.8-2.4c0.2-0.8,0.3-1.6,0.4-2.3
				c0.3-1.6,0.8-3,2.7-3.5c0.5-0.1,1-0.5,1.3-0.9c0.2-0.3,0.4-0.9,0.3-1.2c-0.6-1.5-2.7-2-3.7-0.9c-1.4,1.4-2.5,3-3.7,4.5
				c-0.2,0.2-0.3,0.5-0.5,0.8c0.6-3.1-1.6-5.2-3-7.8c1.2,0,2,0,2.9,0s1.7,0,2.6,0v-2.3c1.9,0.8,0.8,2.7,1.5,4c0.5-1.4,1-2.6,1.3-3.2
				c0.2-2.1,0.4-3.7,0.5-5.2c0-0.5-0.2-1-0.3-1.5c-0.4,0.4-0.9,0.7-1.1,1.1c-0.9,1.9-1.9,2.1-3.8,0.7c0.5-0.1,1.1-0.1,1.9-0.2
				c-0.8-0.4-1.2-0.6-1.6-0.8C35.6,50.7,35.3,50.4,34.9,50.2c1.3,0.1,2.7,0.3,4.1,0.3c0.3,0,0.8-0.4,0.9-0.7
				c0.1-0.3-0.3-0.8-0.3-0.9c-0.7,0.5-1.2,1.1-1.8,1.2c-1,0.2-2-0.1-2.4-1.3c-0.1,0-0.3,0.1-0.4,0.1C35,49.3,34.9,49.7,34.9,50.2
				L34.9,50.2z M41.9,72.1c1.5,3.2,2.9,4,4.7,0.2c0.1,0.2,0.2,0.5,0.3,0.7c0.5-0.1,1-0.2,1.4-0.3c0.1,0,0.3,0.1,0.4,0.1
				c-0.2-1.4-0.2-2.9-0.6-4.3c-0.5-1.5-1.8-2.2-3.5-2.1c0.4-0.2,0.7-0.5,1.4-0.8c-1.4-0.1-2.5-0.2-3.6-0.2c-0.4,0-0.9,0-1.3,0.1
				c0.4,0.2,0.8,0.4,1.1,0.6c0.1,0.1,0.2,0.1,0.4,0.3c-2.6,1-3.6,2.9-3.3,5.4c0.2,1.6,1.9,1.7,3.3,2.6
				C42.2,73.3,42.1,72.7,41.9,72.1L41.9,72.1z M43.3,74.9c0,0.5,0.1,0.7,0.1,1c0.4,2.8-1.7,4.9-4.5,4.4c-0.2,0-0.6,0-0.7,0.1
				c-0.6,0.6-0.3,3.5,0.4,4c1.9,1.4,4.1,1.3,6.3,1.3c2.8-0.1,5.2-1,6.5-4.3h-8.2c0.8-1.3,1.5-2.3,1.9-3.4
				C45.4,76.7,44.8,75.6,43.3,74.9L43.3,74.9z M53.3,30.7c0-3.2-1-4.7-3.8-5.7c-1.4-0.5-2.3-0.1-2.9,1.2c-0.4,0.9-0.8,1.8-1.1,2.6
				c-0.7,1.7-0.5,3.3,0.9,4.6c1.4,1.2,3,0.8,4.4,0.2C52.1,33,53.7,32.5,53.3,30.7L53.3,30.7z M25.6,78.9C25.4,79,25.2,79,25,79.1
				c0.4,1.2,0.5,2.6,1.1,3.6c0.7,1,1.9,1.8,2.9,2.5c1.9,1.5,3.8,2.9,5.7,4.4c3.8,3,7.6,5.8,12,7.8c1.2,0.6,2.8,0.4,3.8-0.5
				c-2.5,0.3-4.5-0.6-6.3-1.9c-5.1-3.7-10.1-7.4-15.1-11.1C27.3,82.7,25.9,81.2,25.6,78.9z M57.6,43.8c0-1.4,0.1-2.5,0-3.5
				c-0.3-3.1,0.7-6.2-0.2-9.2c-0.5-1.6-1.3-3.2-2.1-4.7c-0.1-0.2-0.6-0.2-1-0.4c0.1,0.3,0.1,0.6,0.2,0.9c0.2,0.8,0.7,1.5,0.8,2.3
				c0.1,2.7,0.2,5.5,0.2,8.2C55.5,39.7,56.1,41.7,57.6,43.8z M44.6,46.6c-0.2,0-0.7,0.2-1.1,0.1c-1.1-0.1-1.2,0.4-0.9,1.2
				c0.2,0.4,0.3,0.8,0.2,1.2c-0.1,3.2-0.3,6.3-0.4,9.5c0,0.3,0,0.6,0.1,0.8c0.2,0.3,0.4,0.6,0.7,0.7c0.2,0,0.7-0.3,0.8-0.5
				c0.1-0.8,0.2-1.7,0.1-2.5c0-0.5-0.3-1.1-0.2-1.7C44.2,52.5,44.4,49.6,44.6,46.6L44.6,46.6z M57,44.9c-1.6-3.6-6.6-4.9-9.9-2.6
				c-0.4,0.3-0.5,1-0.8,1.5c0.5,0.1,1,0.4,1.5,0.3C50.8,43.4,54,42.9,57,44.9C56.9,45,56.9,44.9,57,44.9z M59.1,45.2
				c0.2,0,0.4,0,0.6,0c0.1-0.4,0.2-0.8,0.2-1.1c-0.1-4-0.2-8.1-0.4-12.2c-0.1-3.1-1.7-5.5-3.7-7.6c-0.5-0.5-1.2-0.7-1.8-1.1
				l-0.2,0.3c2,0.9,2.8,2.6,3.5,4.5c0.2,0.6,0.6,1.3,0.8,1.9c0.1,0.4,0.2,0.8,0.2,1.2c0.1,0.7,0.1,1.5,0.2,2.2
				c0.2,1.2,0.6,2.5,0.7,3.7C59.1,39.7,59.1,42.4,59.1,45.2z M38,86.4c0.2,1,0.4,1.7,0.6,2.3c0.1,0.2,0.3,0.4,0.6,0.5
				c0.6,0.3,1.2,0.6,1.8,0.8c0.2,0.1,0.7,0,0.8-0.1c0.6-1,1.6-0.9,2.6-0.9c1.2,0,2.3,0.3,3.5,0.3c1.5,0,3-0.3,4.5-0.4
				c0-0.2,0-0.3,0-0.5C47.5,88.7,42.7,88.1,38,86.4L38,86.4z M39.4,79c1.5,0.8,2.2,0.1,2.8-0.6c0.7-0.9,1-1.9,0.5-2.9
				c-0.4-0.8-1.9-1.2-2.1-0.7c-0.6,1.5-1.8,2.3-3.1,3.1c-0.2,0.1-0.3,0.5-0.4,0.8c0.3,0.1,0.7,0.3,0.9,0.2c1-0.3,1.9-0.7,2.9-1
				c0,0,0.1,0.1,0.2,0.1C40.5,78.3,40.1,78.6,39.4,79L39.4,79z M50.1,80.2c-2-1.3-2.4-2.1-2.1-3.9c0.1-0.3,0.2-0.7,0.2-1
				c0-0.3-0.1-0.7-0.2-1c-0.3,0.1-0.8,0.1-1,0.3c-0.4,0.4-0.8,0.8-1.1,1.3c-0.7,1.2-0.5,2.6,0.5,3.7C47.5,80.7,48.7,80.9,50.1,80.2
				L50.1,80.2z M34.6,71.1c-0.4,1.4-0.5,2.7,0.1,4c0.6,1.2,2,1.6,3.3,1.3c1.4-0.3,0.6-1.4,0.9-2.3C36.7,74.2,35.6,72.7,34.6,71.1
				L34.6,71.1z M30.8,72.3c-0.2,0-0.5,0.1-0.7,0.1c-0.2,1.1-0.4,2.2-0.6,3.3l0.4,0.1l0.5-0.9c0.1,0,0.2,0,0.4,0
				c0.1,2.7,0.3,5.4,0.5,8.2c0.2,0,0.4,0,0.6,0c0-2.6,0.2-5.1,0-7.7C31.8,74.3,31.2,73.3,30.8,72.3L30.8,72.3z M56.3,89.7l0.7,0
				c0.3-4.3,0.5-8.7,0.8-13.4c-0.5,0.8-1.1,1.4-1.1,2c-0.2,2.3-0.3,4.5-0.3,6.8C56.2,86.7,56.3,88.2,56.3,89.7L56.3,89.7z
				 M49.9,74.6c-1.2,1.1-1.2,2.8-0.3,3.8c1.2,1.2,3,1.2,4.3,0c-0.9-0.4-1.9-0.6-2.5-1.2C50.6,76.6,50.4,75.6,49.9,74.6z M54.7,88.4
				c0.2,0,0.3,0,0.5,0c0.3-3,0.5-6,0.8-9c-0.2-0.1-0.4-0.1-0.6-0.2c-0.2,0.5-0.6,1-0.7,1.6c-0.2,0.8-0.2,1.7-0.2,2.5
				C54.5,85,54.6,86.7,54.7,88.4L54.7,88.4z M36.6,87.1c0.2,0,0.3,0,0.5,0c0-1.8-0.1-3.6,0-5.3c0.1-1.3-0.2-2.2-1.5-2.8
				C36,81.7,36.3,84.4,36.6,87.1z M51.1,74.2c-0.4,0.9-0.1,1.9,0.9,2.6c1,0.7,2.3,0.8,3,0.3C53.7,76.1,52.4,75.2,51.1,74.2
				L51.1,74.2z M58,49.3c-0.1-2-3.1-4.2-4.9-3.6C54.8,47,56.4,48.1,58,49.3z M44.3,94.2c2.7,2.4,7.7,1,9.9-0.8
				C51.2,94.9,48,95.3,44.3,94.2z M54,48.8c-1.4-1.5-2.9-2.2-4.8-1.8c-1.1,0.2-1.9,0.8-2.3,1.6c1.1-0.3,2.2-1,3.3-0.9
				C51.4,47.6,52.6,48.3,54,48.8z M39.5,47.6c-1.7-1.4-4.9-0.7-6.6,1.6C35.1,48,37.1,46.8,39.5,47.6z M42.7,43.3
				c0.4,0.5,0.7,0.8,1,1.1c0.3-0.3,0.9-0.6,1-1c0.1-0.4-0.4-0.8-0.6-1.2C43.7,42.5,43.3,42.8,42.7,43.3L42.7,43.3z M50.2,90.9
				c0-0.1,0.1-0.2,0.1-0.3c-1.8-0.4-3.7-0.9-5.5-1.3c0,0.1,0,0.2-0.1,0.3L50.2,90.9z M44.5,59c0.2,0.2,0.4,0.3,0.7,0.5
				c0.3-0.5,0.7-0.9,0.9-1.4c0-0.1-0.3-0.4-0.5-0.6C45.2,58,44.8,58.5,44.5,59z M39,45.7c0.9,0.1,1.5,0.1,2.2,0.2
				C40.5,45.1,39.8,45.1,39,45.7z M54.1,89.7c0-0.2,0-0.3,0-0.5c-0.9,0.2-1.8,0.3-2.7,0.5c0,0.1,0,0.2,0.1,0.4
				C52.3,90,53.2,89.8,54.1,89.7z"/>
			<path d="M41.6,22.5c-0.2-0.7-0.6-1.5-0.5-2.1c0.2-1.3,0.8-2.4,2.5-3.2c-1,1.8-2.2,3.3-1.5,5.2C41.9,22.4,41.8,22.4,41.6,22.5z"/>
			<path d="M35.6,37.2c0.8,0.3,1.5,0.5,2.2,0.8C36.7,38.8,35.9,38.6,35.6,37.2z"/>
			<path class="st1" d="M34.9,50.1c0.4,0.3,0.8,0.6,1.2,0.8c0.4,0.2,0.8,0.4,1.6,0.8c-0.9,0.1-1.4,0.2-1.9,0.2
				c1.9,1.4,2.8,1.2,3.8-0.7c0.2-0.5,0.7-0.8,1.1-1.1c0.1,0.5,0.3,1,0.3,1.5c-0.1,1.6-0.3,3.2-0.5,5.2c-0.3,0.7-0.7,1.8-1.3,3.2
				c-0.8-1.3,0.3-3.2-1.5-4v2.3h-5.5c1.4,2.6,3.5,4.7,3,7.8c0.2-0.2,0.3-0.5,0.5-0.8c1.2-1.5,2.4-3.1,3.7-4.5
				c1.1-1.1,3.1-0.5,3.7,0.9c0.1,0.3,0,0.9-0.3,1.2c-0.3,0.4-0.8,0.8-1.3,0.9c-1.9,0.4-2.4,1.9-2.7,3.4c-0.2,0.8-0.2,1.6-0.4,2.3
				c-0.2,0.8-0.5,1.6-0.8,2.4c-0.2,0-0.4,0-0.6-0.1c-0.1-0.7-0.2-1.4-0.2-2.1c0-0.7,0.1-1.5,0-2.2c-0.1,1.3-0.3,2.6-0.4,3.9
				c-0.1,0-0.3,0.1-0.4,0.1c-0.4-0.9-0.8-1.9-1.3-2.8c-1.2,1.5-1.4,4.7-0.2,7.1l0,0c-1.2-0.2-1.4-1.2-1.6-2.1
				c-0.6-2.7-1.1-5.4-1.7-8.1c-0.1-0.5-0.2-1-0.7-1.4c0.1,1.5,0.2,3,0.4,4.4c-1.2-2.2-1.9-4.5-1.4-6.9c0.1,0,0.2-0.1,0.3-0.1
				c0.1,0.1,0.3,0.2,0.4,0.3c1.6-1.5,0.7-3.3,0.7-5c0-1.8,0.1-3.7,0.1-5.5C31,49.8,32.9,49,34.9,50.1L34.9,50.1L34.9,50.1z"/>
			<path class="st1" d="M47.9,50.7c1.7,2.3,3,3.2,5.2,0.9c-0.5,0-0.9,0.1-1.3,0.1c0.6-1.3,2.5-2.3,3.9-2.1c0.8,0.1,1.7,0.2,2.4,0.5
				c0.6,0.2,1.4,0.8,1.4,1.2c0,2.5-0.2,4.9-1.5,7.1c-0.1,0.1-0.2,0.2-0.6,0.5c0.3-1.4,0.6-2.5,0.8-3.7c-0.1-0.1-0.2-0.1-0.2-0.2
				c-0.5,0.5-1.1,1.1-1.6,1.6c-0.5,0.5-1.1,0.9-1.6,1.4c-0.3,0.3-0.3,0.8-0.5,1.1c-0.5,0.5-1,0.9-1.6,1.2c-0.2,0.1-0.9-0.3-1-0.6
				c-0.6-1.3-0.8-2.7-0.2-4.1c0.1-0.3,0.2-0.6,0.3-0.9c-0.1-0.1-0.3-0.1-0.4-0.2c-0.5,0.8-1,1.5-1.4,2.4c-0.2,0.4-0.2,1-0.4,1.4
				c-0.2,0.3-0.7,0.6-1.1,0.6c-0.3,0-0.7-0.4-0.9-0.7c-0.5-0.6-0.8-1.3-1.3-2.1c0.9-0.3,0.8-1.1,0.4-2c-0.2-0.6-0.3-1.2-0.4-1.8
				C45.9,50.4,46,50.3,47.9,50.7L47.9,50.7L47.9,50.7z"/>
			<path class="st1" d="M41.9,72.1c0.2,0.6,0.3,1.1,0.6,2.1c-1.4-0.9-3.1-1-3.3-2.6c-0.3-2.4,0.7-4.4,3.3-5.4
				c-0.2-0.2-0.3-0.2-0.4-0.3c-0.4-0.2-0.8-0.4-1.1-0.6c0.4,0,0.9-0.1,1.3-0.1c1.1,0.1,2.2,0.1,3.6,0.2c-0.6,0.4-1,0.6-1.4,0.8
				c1.6,0,3,0.6,3.5,2.1c0.4,1.4,0.4,2.8,0.6,4.3c-0.1,0-0.3-0.1-0.4-0.1c-0.4,0.1-0.9,0.2-1.4,0.3c-0.1-0.2-0.2-0.4-0.3-0.7
				C44.8,76.1,43.4,75.4,41.9,72.1L41.9,72.1z"/>
			<path class="st1" d="M43.3,74.8c1.6,0.7,2.1,1.8,1.8,3.1C44.8,79,44,80,43.2,81.3h8.2c-1.3,3.3-3.7,4.2-6.5,4.3
				c-2.2,0.1-4.4,0.1-6.3-1.3c-0.7-0.5-1-3.4-0.4-4c0.2-0.1,0.5-0.1,0.7-0.1c2.8,0.4,4.9-1.6,4.5-4.4C43.4,75.6,43.3,75.3,43.3,74.8
				L43.3,74.8z"/>
			<path class="st1" d="M53.3,30.7c0.4,1.8-1.2,2.3-2.4,2.9c-1.5,0.7-3.1,1.1-4.4-0.2c-1.4-1.2-1.6-2.8-0.9-4.6
				c0.3-0.9,0.7-1.8,1.1-2.6c0.6-1.3,1.6-1.7,2.9-1.2C52.3,26,53.4,27.5,53.3,30.7L53.3,30.7z"/>
			<path class="st1" d="M25.6,78.9c0.3,2.3,1.7,3.8,3.5,5c5,3.7,10.1,7.4,15.2,11.1c1.8,1.3,3.9,2.2,6.3,1.9c-1,0.9-2.5,1-3.8,0.5
				c-4.4-2-8.3-4.8-12-7.8c-1.9-1.5-3.8-2.9-5.7-4.4c-1-0.8-2.2-1.5-2.9-2.5c-0.7-1-0.8-2.4-1.1-3.6C25.2,79,25.4,79,25.6,78.9z"/>
			<path class="st1" d="M57.7,43.8c-1.5-2.1-2.1-4.1-2.1-6.4c0-2.7,0-5.5-0.2-8.2c0-0.8-0.5-1.5-0.8-2.3c-0.1-0.3-0.1-0.6-0.2-0.9
				c0.3,0.1,0.8,0.1,1,0.4c0.8,1.5,1.6,3.1,2.1,4.7c0.9,3-0.2,6.2,0.2,9.2C57.7,41.3,57.7,42.4,57.7,43.8z"/>
			<path class="st1" d="M44.6,46.6c-0.2,3-0.4,5.9-0.6,8.8c0,0.5,0.2,1.1,0.2,1.7c0,0.8,0,1.7-0.1,2.5c0,0.2-0.5,0.5-0.8,0.5
				s-0.5-0.4-0.7-0.7c-0.1-0.2-0.2-0.5-0.1-0.8c0.1-3.2,0.3-6.3,0.4-9.5c0-0.4-0.1-0.9-0.2-1.2c-0.3-0.9-0.2-1.4,0.9-1.2
				C43.9,46.8,44.4,46.6,44.6,46.6L44.6,46.6z"/>
			<path class="st1" d="M57,44.9C57,44.9,56.9,44.9,57,44.9c-3-2-6.1-1.5-9.3-0.8c-0.4,0.1-1-0.2-1.5-0.3c0.3-0.5,0.4-1.2,0.8-1.5
				C50.4,40,55.4,41.3,57,44.9z"/>
			<path class="st1" d="M59.1,45.1c0-2.7,0.1-5.5,0-8.2c0-1.2-0.5-2.5-0.7-3.7c-0.1-0.7-0.1-1.5-0.2-2.2c0-0.4-0.1-0.8-0.2-1.2
				c-0.2-0.7-0.5-1.3-0.8-1.9c-0.7-1.8-1.5-3.6-3.5-4.5l0.2-0.3c0.6,0.4,1.3,0.6,1.8,1.1c2,2.1,3.6,4.5,3.7,7.6
				c0.2,4,0.3,8.1,0.4,12.2c0,0.4-0.1,0.8-0.2,1.1C59.5,45.2,59.3,45.1,59.1,45.1z"/>
			<path class="st1" d="M38.1,86.3c4.7,1.7,9.4,2.3,14.3,1.9c0,0.2,0,0.3,0,0.5c-1.5,0.1-3,0.4-4.5,0.4c-1.2,0-2.3-0.2-3.5-0.3
				c-0.9,0-1.9-0.2-2.6,0.9c-0.1,0.2-0.6,0.2-0.8,0.1c-0.6-0.2-1.2-0.5-1.8-0.8c-0.2-0.1-0.5-0.3-0.6-0.5
				C38.4,88,38.3,87.4,38.1,86.3L38.1,86.3z"/>
			<path class="st1" d="M39.5,79c0.7-0.4,1.2-0.8,1.6-1.1c0,0-0.1-0.1-0.2-0.1c-1,0.3-1.9,0.7-2.9,1c-0.3,0.1-0.6-0.1-0.9-0.2
				c0.1-0.3,0.2-0.7,0.4-0.8c1.3-0.8,2.5-1.6,3.1-3.1c0.2-0.5,1.8,0,2.1,0.7c0.5,1,0.3,2.1-0.5,2.9C41.7,79.1,41,79.8,39.5,79
				L39.5,79z"/>
			<path class="st1" d="M50.2,80.2c-1.4,0.7-2.6,0.5-3.6-0.5c-1-1.1-1.2-2.5-0.5-3.7c0.3-0.5,0.7-0.9,1.1-1.3c0.2-0.2,0.7-0.2,1-0.3
				c0.1,0.3,0.2,0.7,0.2,1c0,0.3-0.2,0.7-0.2,1C47.8,78.1,48.2,78.8,50.2,80.2L50.2,80.2z"/>
			<path class="st1" d="M34.6,71.1c1,1.7,2.1,3.1,4.3,3c-0.3,0.8,0.5,1.9-0.9,2.3c-1.3,0.3-2.7-0.1-3.3-1.3
				C34.1,73.8,34.2,72.5,34.6,71.1L34.6,71.1z"/>
			<path class="st1" d="M30.9,72.3c0.4,1,1,2,1,3.1c0.1,2.5,0,5.1,0,7.7c-0.2,0-0.4,0-0.6,0c-0.1-2.7-0.3-5.4-0.5-8.2
				c-0.1,0-0.2,0-0.4,0l-0.5,0.9l-0.4-0.1c0.2-1.1,0.4-2.2,0.6-3.3C30.4,72.3,30.6,72.3,30.9,72.3L30.9,72.3z"/>
			<path class="st1" d="M49.9,74.6c0.5,1,0.8,2,1.4,2.6c0.6,0.6,1.7,0.8,2.5,1.2c-1.2,1.2-3.1,1.2-4.3,0
				C48.7,77.4,48.8,75.6,49.9,74.6z"/>
			<path class="st1" d="M54.7,88.4c-0.1-1.7-0.2-3.4-0.2-5.1c0-0.8,0-1.7,0.2-2.5c0.1-0.6,0.5-1.1,0.7-1.6c0.2,0.1,0.4,0.1,0.6,0.2
				c-0.3,3-0.5,6-0.8,9C55,88.4,54.9,88.4,54.7,88.4L54.7,88.4z"/>
			<path class="st1" d="M36.7,87.1c-0.3-2.7-0.6-5.4-1-8.2c1.3,0.6,1.6,1.5,1.5,2.8c-0.1,1.8,0,3.6,0,5.3C37.1,87,36.9,87,36.7,87.1
				z"/>
			<path class="st1" d="M51.1,74.2c1.3,1,2.6,2,3.9,2.9c-0.7,0.5-2,0.4-3-0.3C51,76.1,50.7,75.1,51.1,74.2L51.1,74.2z"/>
			<path class="st1" d="M58.1,49.3c-1.6-1.2-3.3-2.4-4.9-3.6C55,45.1,58,47.3,58.1,49.3z"/>
			<path class="st1" d="M44.4,94.2c3.7,1.1,6.8,0.7,9.9-0.8C52.1,95.2,47,96.6,44.4,94.2z"/>
			<path class="st1" d="M47.9,50.7c-0.9-0.6-0.8-1.2,0-1.9c1.4,1.7,2.9,1.7,4.3,0c0.2,0.3,0.5,0.6,0.5,0.8c-0.1,0.3-0.4,0.6-0.7,0.7
				C50.7,50.8,49.3,51.1,47.9,50.7L47.9,50.7L47.9,50.7z"/>
			<path class="st1" d="M34.5,76.1c0.4,0.3,0.8,0.7,0.9,0.8c-0.2,0.5-0.5,1-0.5,1.5c0,1.8,0.2,3.5,0.2,5.3c-0.4-2.3-0.9-4.7-1.3-7.2
				C33.9,76.5,34.2,76.3,34.5,76.1L34.5,76.1L34.5,76.1z"/>
			<path class="st1" d="M34.9,50.2c0-0.4,0-0.9,0.1-1.3c0.1,0,0.3-0.1,0.4-0.1c0.4,1.3,1.3,1.6,2.4,1.3c0.6-0.1,1.1-0.7,1.8-1.2
				c0.1,0.2,0.4,0.6,0.3,0.9c-0.1,0.3-0.6,0.7-0.9,0.7C37.6,50.4,36.3,50.2,34.9,50.2C34.9,50.1,34.9,50.2,34.9,50.2z"/>
			<path class="st1" d="M54,48.8c-1.4-0.5-2.6-1.1-3.8-1.2c-1.1,0-2.2,0.6-3.3,0.9c0.4-0.8,1.2-1.4,2.3-1.6
				C51.1,46.5,52.7,47.2,54,48.8z"/>
			<path class="st1" d="M39.6,47.6c-2.4-0.8-4.4,0.4-6.6,1.6C34.7,46.9,37.9,46.2,39.6,47.6z"/>
			<path class="st1" d="M42.8,43.3c0.6-0.5,1-0.8,1.4-1.1c0.2,0.4,0.7,0.9,0.6,1.2s-0.6,0.7-1,1C43.5,44.1,43.2,43.8,42.8,43.3
				L42.8,43.3z"/>
			<path class="st1" d="M50.2,90.9l-5.4-1.3c0-0.1,0-0.2,0.1-0.3c1.8,0.4,3.7,0.9,5.5,1.3C50.3,90.7,50.3,90.8,50.2,90.9z"/>
			<path class="st1" d="M44.6,59c0.3-0.5,0.7-1,1-1.5c0.2,0.2,0.6,0.5,0.5,0.6c-0.2,0.5-0.6,0.9-0.9,1.4C45,59.3,44.8,59.1,44.6,59z
				"/>
			<path class="st1" d="M39.1,45.7c0.7-0.7,1.5-0.6,2.2,0.2C40.6,45.9,40,45.8,39.1,45.7z"/>
			<path class="st1" d="M54.2,89.7c-0.9,0.1-1.8,0.3-2.7,0.4c0-0.1,0-0.2-0.1-0.4c0.9-0.2,1.8-0.3,2.7-0.5
				C54.1,89.4,54.2,89.5,54.2,89.7z"/>
		</g>
	</g>
	<path d="M61.1,44.2c1.1-1.1,2.2-2.3,3.3-3.3c1.4-1.3,2.4-2.7,2.2-4.7c-0.1-0.7-0.3-1.4-0.4-2.1c1.1,1.3,1.2,2.9,1,4.5
		c-0.1,0.6-0.8,1.2-1.3,1.7c-1.5,1.4-3.1,2.8-4.6,4.1C61.2,44.4,61.2,44.3,61.1,44.2L61.1,44.2z"/>
</g>
<g id="Talasi">
	<path class="st2" d="M262.5,83.7c-0.2-0.3-0.6-0.4-0.9-0.2c-1,0.9-1.9,1.8-3.2,2.4c-1.3,0.7-2.8,1.1-4.5,1.1
		c-3.9,0-5.8-1.7-7.8-3.6c-2.1-1.9-4.2-3.9-8.5-3.9s-6.4,2-8.5,3.9c-2,1.8-3.9,3.5-7.8,3.6c-3.9,0-5.7-1.7-7.8-3.6
		c-2.1-1.9-4.2-3.9-8.5-3.9s-6.4,2-8.5,3.8c0,0-0.1,0-0.1,0.1c-0.9,0.9-1.9,1.8-3.2,2.4c-1,0.5-2.1,0.9-3.3,1c-0.2,0-0.5,0-0.7,0
		c-0.2,0-0.4,0-0.6,0c-3.9,0-5.8-1.7-7.8-3.6c0,0-0.1-0.1-0.1-0.1c-2.1-1.9-4.2-3.8-8.5-3.8s-6.4,2-8.5,3.9c-2,1.8-3.9,3.6-7.8,3.6
		s-5.8-1.7-7.8-3.6c-0.3-0.3-0.7-0.2-0.9,0.2c-0.2,0.3-0.1,0.8,0.1,1.1c2.1,1.9,4.2,3.9,8.5,3.9s6.4-2,8.5-3.9
		c2-1.8,3.9-3.6,7.8-3.6s5.8,1.7,7.8,3.6c2.1,1.9,4.2,3.9,8.5,3.9c0,0,0,0,0,0c0,0,0,0,0,0c4.3,0,6.4-2,8.5-3.9
		c2-1.8,3.9-3.6,7.8-3.6s5.7,1.6,7.6,3.4c0,0,0.1,0.1,0.1,0.1c2.1,1.9,4.2,3.9,8.5,3.9h0h0c4.3,0,6.5-2,8.5-3.8c0,0,0.1-0.1,0.1-0.1
		c2-1.8,3.9-3.5,7.7-3.5s5.8,1.7,7.8,3.6c2.1,1.9,4.2,3.9,8.5,3.9s6.5-2,8.5-3.8C262.6,84.5,262.7,84,262.5,83.7L262.5,83.7z"/>
	<path class="st2" d="M262.5,91.5c-0.2-0.3-0.6-0.4-0.9-0.2c-1,0.9-1.9,1.8-3.2,2.4c-1.3,0.7-2.8,1.1-4.5,1.1
		c-3.9,0-5.8-1.7-7.8-3.6c-2.1-1.9-4.2-3.9-8.5-3.9s-6.4,2-8.5,3.9c-2,1.8-3.9,3.5-7.8,3.6c-3.9,0-5.7-1.7-7.8-3.6
		c-2.1-1.9-4.2-3.9-8.5-3.9s-6.4,2-8.5,3.8c0,0-0.1,0-0.1,0.1c-0.9,0.9-1.9,1.8-3.2,2.4c-1,0.5-2.1,0.9-3.3,1c-0.2,0-0.5,0-0.7,0
		c-0.2,0-0.4,0-0.6,0c-3.9,0-5.8-1.7-7.8-3.6c0,0-0.1-0.1-0.1-0.1c-2.1-1.9-4.2-3.8-8.5-3.8s-6.4,2-8.5,3.9c-2,1.8-3.9,3.6-7.8,3.6
		s-5.8-1.7-7.8-3.6c-0.3-0.3-0.7-0.2-0.9,0.2c-0.2,0.3-0.1,0.8,0.1,1.1c2.1,1.9,4.2,3.9,8.5,3.9s6.4-2,8.5-3.9
		c2-1.8,3.9-3.6,7.8-3.6s5.8,1.7,7.8,3.6c2.1,1.9,4.2,3.9,8.5,3.9c0,0,0,0,0,0c0,0,0,0,0,0c4.3,0,6.4-2,8.5-3.9
		c2-1.8,3.9-3.6,7.8-3.6s5.7,1.6,7.6,3.4c0,0,0.1,0.1,0.1,0.1c2.1,1.9,4.2,3.9,8.5,3.9h0h0c4.3,0,6.5-2,8.5-3.8c0,0,0.1-0.1,0.1-0.1
		c2-1.8,3.9-3.5,7.7-3.5s5.8,1.7,7.8,3.6c2.1,1.9,4.2,3.9,8.5,3.9s6.5-2,8.5-3.8C262.6,92.4,262.7,91.9,262.5,91.5L262.5,91.5z"/>
</g>
<g id="Tekst">
	<g>
		<path class="st4" d="M95.9,29.1c-0.4-0.3-1-0.5-1.8-0.7c-0.7-0.1-1.7-0.2-2.9-0.2l-5.1-0.1c-0.9,0-1.6,0-2.2-0.1
			c-0.6-0.1-0.9-0.2-1-0.2c-0.1-0.1-0.2-0.2-0.3-0.3c-0.1-0.2-0.1-0.6-0.1-1c0-0.5,0-0.9,0.1-1.1c0.1-0.2,0.2-0.3,0.4-0.4
			c0.2-0.1,0.5-0.2,1.2-0.2c0.6,0,1.4-0.1,2.4-0.1h3.6c0.8,0,1.5,0,2.1,0c0.5,0,0.9,0.1,1.2,0.2c0.2,0.1,0.3,0.2,0.4,0.5
			c0.1,0.3,0.2,0.9,0.2,1.5v0.5h2.6V27c0-1-0.1-1.9-0.3-2.5c-0.2-0.7-0.6-1.2-1.2-1.5c-0.5-0.3-1.2-0.5-2-0.6
			c-0.8-0.1-1.8-0.1-2.9-0.1h-3.6c-1.3,0-2.4,0.1-3.2,0.2c-0.9,0.1-1.6,0.3-2.1,0.6c-0.5,0.3-0.9,0.8-1.1,1.4
			c-0.2,0.5-0.3,1.2-0.3,2c0,0.7,0.1,1.3,0.2,1.8c0.2,0.6,0.5,1,0.9,1.4c0.4,0.3,1,0.5,1.8,0.7c0.7,0.1,1.7,0.2,2.9,0.2l4.7,0.1
			c1,0,1.8,0,2.4,0.1c0.6,0,1,0.1,1.1,0.2c0.2,0.1,0.2,0.2,0.3,0.3c0.1,0.2,0.1,0.6,0.1,1.1c0,0.5,0,1-0.1,1.3
			c-0.1,0.2-0.2,0.4-0.3,0.5c-0.2,0.1-0.5,0.2-1.1,0.3c-0.6,0.1-1.4,0.1-2.4,0.1h-3.9c-0.9,0-1.6,0-2.2,0c-0.5,0-0.9-0.1-1.2-0.3
			c-0.2-0.1-0.4-0.3-0.5-0.7c-0.1-0.4-0.2-1-0.2-1.7v-0.5H80v0.5c0,1.1,0.1,1.9,0.3,2.6c0.2,0.7,0.7,1.3,1.2,1.6
			c0.5,0.3,1.2,0.6,2.1,0.7c0.8,0.1,1.8,0.2,3,0.2h4c1.3,0,2.4-0.1,3.2-0.2c0.9-0.2,1.5-0.4,2-0.8c0.5-0.4,0.8-0.9,1-1.5
			c0.2-0.6,0.2-1.2,0.2-2.1c0-0.7-0.1-1.4-0.2-1.9C96.7,30,96.4,29.5,95.9,29.1L95.9,29.1z"/>
		<polygon class="st4" points="107.5,33.9 101.5,22.6 98.5,22.6 106.1,36.7 108.8,36.7 116.4,22.6 113.4,22.6 		"/>
		<polygon class="st4" points="121.1,30.7 131.9,30.7 131.9,28.3 121.1,28.3 121.1,25 132.3,25 132.3,22.6 118.5,22.6 118.5,36.7
			132.6,36.7 132.6,34.3 121.1,34.3 		"/>
		<polygon class="st4" points="134.1,25 140.6,25 140.6,36.7 143.3,36.7 143.3,25 149.8,25 149.8,22.6 134.1,22.6 		"/>
		<rect x="152.4" y="22.6" class="st4" width="2.6" height="14.1"/>
		<polygon class="st4" points="179.5,33.1 167.1,22.6 164.7,22.6 164.7,36.7 167.3,36.7 167.3,26.1 179.8,36.7 182.2,36.7
			182.2,22.6 179.5,22.6 		"/>
		<rect x="185.6" y="22.6" class="st4" width="2.6" height="14.1"/>
		<polygon class="st4" points="208.5,22.6 204.3,22.6 195.9,28.3 194.3,28.3 194.3,22.6 191.7,22.6 191.7,36.7 194.3,36.7
			194.3,30.7 195.9,30.7 204.6,36.7 208.8,36.7 198.5,29.5 		"/>
		<path class="st4" d="M225.8,24.4c-0.3-0.6-0.8-1-1.3-1.3c-0.5-0.3-1.2-0.5-2-0.6c-0.8-0.1-1.6-0.1-2.7-0.1h-3.4
			c-1,0-1.9,0-2.7,0.1c-0.8,0.1-1.4,0.3-2,0.6c-0.6,0.3-1,0.8-1.3,1.3c-0.3,0.5-0.5,1.2-0.6,2.1c-0.1,0.8-0.2,1.8-0.2,3v0.3
			c0,1.4,0.1,2.6,0.3,3.5c0.2,1,0.6,1.7,1.1,2.3s1.3,0.9,2.2,1.1c0.9,0.2,1.9,0.3,3.2,0.3h3.4c1.3,0,2.4-0.1,3.2-0.3
			c0.9-0.2,1.6-0.6,2.2-1.1s0.9-1.3,1.1-2.3c0.2-0.9,0.3-2.1,0.3-3.5v-0.3c0-1.2-0.1-2.2-0.2-3C226.3,25.6,226.1,24.9,225.8,24.4
			L225.8,24.4z M219.8,34.5h-3.4c-0.8,0-1.5,0-2-0.1c-0.5,0-0.9-0.2-1.2-0.3c-0.3-0.1-0.4-0.3-0.6-0.6c-0.2-0.3-0.3-0.8-0.3-1.4
			c-0.1-0.6-0.1-1.4-0.1-2.4v-0.3c0-1,0-1.8,0.1-2.4c0.1-0.6,0.2-1,0.3-1.4c0.1-0.3,0.3-0.5,0.6-0.6c0.3-0.1,0.7-0.2,1.2-0.3
			c0.5,0,1.2-0.1,2-0.1h3.4c0.8,0,1.5,0,2,0.1c0.5,0,0.9,0.1,1.2,0.3c0.2,0.1,0.4,0.3,0.6,0.6c0.2,0.3,0.3,0.8,0.3,1.4
			c0.1,0.6,0.1,1.4,0.1,2.4v0.3c0,1,0,1.7-0.1,2.4c-0.1,0.6-0.2,1-0.3,1.4c-0.1,0.3-0.3,0.5-0.6,0.6c-0.3,0.2-0.7,0.3-1.2,0.3
			C221.2,34.5,220.6,34.5,219.8,34.5L219.8,34.5z"/>
		<polygon class="st4" points="232.1,22.6 229.5,22.6 229.5,36.7 242.5,36.7 242.5,34.3 232.1,34.3 		"/>
		<path class="st4" d="M254.4,22.6h-2.8l-8.2,14.1h3.1l1.6-3h9.8l1.6,3h3.1L254.4,22.6L254.4,22.6z M249.5,31.3l3.5-6.1l3.5,6.1
			H249.5L249.5,31.3z"/>
	</g>
	<g>
		<polygon class="st4" points="87.8,82.9 85.6,82.9 80,84.7 81,87.2 84.9,85.9 84.9,93 80.4,93 80.4,95.7 91.8,95.7 91.8,93
			87.8,93 		"/>
		<path class="st4" d="M106.5,83.5c-0.5-0.3-1.1-0.6-1.9-0.7c-0.7-0.1-1.6-0.2-2.8-0.2h-2.1c-1.2,0-2.1,0.1-2.8,0.2
			c-0.8,0.1-1.4,0.4-1.9,0.7c-0.5,0.4-0.8,0.9-1,1.5c-0.1,0.5-0.2,1.2-0.2,1.9c0,0.7,0.1,1.2,0.2,1.7c0.2,0.6,0.4,1,0.9,1.4
			c0.4,0.3,1,0.6,1.7,0.7c0.7,0.1,1.5,0.2,2.6,0.2h3.9c0.6,0,1.2-0.1,1.7-0.2v1.2c0,0.5-0.1,0.8-0.1,0.9c0,0.1-0.1,0.1-0.2,0.2
			c-0.1,0.1-0.3,0.2-0.9,0.2c-0.5,0.1-1.2,0.1-2,0.1H100c-0.8,0-1.5,0-2-0.1c-0.6,0-0.8-0.1-0.9-0.2c0-0.1-0.1-0.4-0.1-0.9v-0.8H94
			v0.8c0,0.7,0.1,1.3,0.2,1.8c0.2,0.6,0.5,1.1,1,1.4c0.5,0.3,1.1,0.5,1.9,0.6c0.7,0.1,1.6,0.2,2.8,0.2h1.8c1.1,0,2.1-0.1,2.8-0.2
			c0.8-0.1,1.4-0.3,1.9-0.7c0.5-0.3,0.9-0.8,1.1-1.4c0.2-0.5,0.3-1.1,0.3-1.8v-4.9c0-0.7-0.1-1.3-0.2-1.9
			C107.4,84.4,107,83.9,106.5,83.5L106.5,83.5z M104.6,87.9c-0.1,0-0.3,0.1-0.8,0.2c-0.5,0-1.2,0.1-2,0.1h-2c-0.8,0-1.5,0-2-0.1
			C97.2,88,97,87.9,97,87.9c-0.1,0-0.1-0.1-0.1-0.1c0-0.1-0.1-0.4-0.1-0.8c0-0.4,0-0.8,0.1-1c0-0.1,0.1-0.2,0.1-0.2s0.3-0.1,0.8-0.2
			c0.5-0.1,1.1-0.1,2-0.1h2c0.8,0,1.5,0,2,0.1c0.5,0.1,0.7,0.2,0.8,0.2c0.1,0,0.1,0.1,0.1,0.2c0,0.2,0.1,0.5,0.1,1
			c0,0.5,0,0.7-0.1,0.8C104.7,87.8,104.7,87.8,104.6,87.9L104.6,87.9z"/>
		<path class="st4" d="M122.1,83.5c-0.5-0.3-1.1-0.6-1.9-0.7c-0.7-0.1-1.6-0.2-2.8-0.2h-2.1c-1.2,0-2.1,0.1-2.8,0.2
			c-0.8,0.1-1.4,0.4-1.9,0.7c-0.5,0.4-0.8,0.9-1,1.5c-0.1,0.5-0.2,1.2-0.2,1.9c0,0.7,0.1,1.2,0.2,1.7c0.2,0.6,0.4,1,0.9,1.4
			c0.4,0.3,1,0.6,1.7,0.7c0.7,0.1,1.5,0.2,2.6,0.2h3.9c0.6,0,1.2-0.1,1.7-0.2v1.2c0,0.5-0.1,0.8-0.1,0.9c0,0.1-0.1,0.1-0.2,0.2
			c-0.1,0.1-0.3,0.2-0.9,0.2c-0.5,0.1-1.2,0.1-2,0.1h-1.6c-0.8,0-1.5,0-2-0.1c-0.6,0-0.8-0.1-0.9-0.2c0-0.1-0.1-0.4-0.1-0.9v-0.8
			h-2.9v0.8c0,0.7,0.1,1.3,0.2,1.8c0.2,0.6,0.5,1.1,1,1.4c0.5,0.3,1.1,0.5,1.9,0.6c0.7,0.1,1.6,0.2,2.8,0.2h1.8
			c1.1,0,2.1-0.1,2.8-0.2c0.8-0.1,1.4-0.3,1.9-0.7c0.5-0.3,0.9-0.8,1.1-1.4c0.2-0.5,0.3-1.1,0.3-1.8v-4.9c0-0.7-0.1-1.3-0.2-1.9
			C122.9,84.4,122.6,83.9,122.1,83.5L122.1,83.5z M120.2,87.9c-0.1,0-0.3,0.1-0.8,0.2c-0.5,0-1.2,0.1-2,0.1h-2c-0.8,0-1.5,0-2-0.1
			c-0.5-0.1-0.7-0.1-0.8-0.2c-0.1,0-0.1-0.1-0.1-0.1c0-0.1-0.1-0.4-0.1-0.8c0-0.4,0-0.8,0.1-1c0-0.1,0.1-0.2,0.1-0.2
			s0.3-0.1,0.8-0.2c0.5-0.1,1.1-0.1,2-0.1h2c0.8,0,1.5,0,2,0.1c0.5,0.1,0.7,0.2,0.8,0.2c0.1,0,0.1,0.1,0.1,0.2c0,0.2,0.1,0.5,0.1,1
			c0,0.5,0,0.7-0.1,0.8C120.3,87.8,120.2,87.8,120.2,87.9L120.2,87.9z"/>
		<polygon class="st4" points="134.4,93 134.4,82.9 132.1,82.9 126.5,84.7 127.5,87.2 131.4,85.9 131.4,93 126.9,93 126.9,95.7
			138.3,95.7 138.3,93 		"/>
	</g>
	<g>
		<path class="st4" d="M94.3,55.9c-0.4-0.3-1-0.5-1.8-0.7c-0.7-0.1-1.7-0.2-2.9-0.2H81v13h2.5v-4.6h6c1.2,0,2.2-0.1,2.9-0.2
			c0.8-0.1,1.4-0.4,1.8-0.7c0.5-0.3,0.8-0.8,1-1.3c0.2-0.5,0.2-1.1,0.2-1.8v-0.3c0-0.7-0.1-1.3-0.2-1.8
			C95.1,56.7,94.8,56.3,94.3,55.9z M83.5,57.4h5.7c0.9,0,1.7,0,2.2,0.1c0.6,0,0.9,0.2,1.1,0.2c0.2,0.1,0.3,0.2,0.3,0.4
			c0.1,0.2,0.1,0.6,0.1,1v0.3c0,0.4,0,0.7-0.1,1c-0.1,0.2-0.2,0.3-0.3,0.4c-0.2,0.1-0.5,0.2-1.1,0.3c-0.5,0.1-1.3,0.1-2.2,0.1h-5.7
			C83.5,61.2,83.5,57.4,83.5,57.4z"/>
		<polygon class="st4" points="100.1,55.1 97.6,55.1 97.6,68.1 109.6,68.1 109.6,65.8 100.1,65.8 		"/>
		<rect x="111.7" y="55.1" class="st4" width="2.5" height="13"/>
		<polygon class="st4" points="124.3,65.4 118.8,55.1 116,55.1 123,68.1 125.6,68.1 132.6,55.1 129.7,55.1 		"/>
		<path class="st4" d="M140.6,55.1l-7.6,13h2.9l1.5-2.8h8.9l1.5,2.8h2.9l-7.6-13L140.6,55.1L140.6,55.1z M138.7,63.1l3.1-5.5
			l3.1,5.5L138.7,63.1L138.7,63.1z"/>
		<path class="st4" d="M166.1,55.7c-0.5-0.3-1.2-0.6-2-0.7c-0.8-0.1-1.7-0.2-2.8-0.2h-3.1c-0.9,0-1.8,0-2.5,0.1
			c-0.7,0.1-1.3,0.3-1.8,0.5c-0.5,0.3-0.9,0.7-1.2,1.2c-0.3,0.5-0.5,1.2-0.6,1.9c-0.1,0.8-0.2,1.7-0.2,2.8v0.3
			c0,1.3,0.1,2.4,0.3,3.2c0.2,0.9,0.5,1.6,1,2.1c0.5,0.5,1.2,0.8,2,1c0.8,0.2,1.8,0.2,3,0.2h3.1c1.1,0,2-0.1,2.8-0.1
			c0.8-0.1,1.5-0.3,2-0.7c0.5-0.3,0.9-0.9,1.2-1.6c0.2-0.6,0.3-1.4,0.3-2.5V63h-2.5v0.5c0,0.7-0.1,1.2-0.2,1.6
			c-0.1,0.3-0.2,0.5-0.4,0.6c-0.2,0.1-0.6,0.2-1.1,0.3c-0.5,0-1.2,0.1-2.1,0.1h-3.1c-0.7,0-1.3,0-1.8-0.1c-0.4-0.1-0.8-0.1-1.1-0.3
			c-0.2-0.1-0.4-0.3-0.5-0.6c-0.1-0.3-0.2-0.7-0.3-1.2c-0.1-0.6-0.1-1.3-0.1-2.2v-0.3c0-0.9,0-1.6,0.1-2.2c0.1-0.5,0.2-1,0.3-1.2
			c0.1-0.2,0.3-0.4,0.5-0.5c0.3-0.1,0.6-0.2,1.1-0.2c0.5,0,1.1-0.1,1.8-0.1h3.1c0.8,0,1.5,0,2,0.1c0.5,0,0.8,0.1,1.1,0.3
			c0.2,0.1,0.4,0.3,0.5,0.6c0.1,0.4,0.2,0.9,0.2,1.6v0.5h2.5v-0.5c0-1-0.1-1.8-0.3-2.5C167.1,56.5,166.7,56,166.1,55.7L166.1,55.7z"
			/>
		<polygon class="st4" points="160.8,54.8 163.7,50.4 161.9,49.1 159.7,52.4 157.6,49.1 155.8,50.4 158.7,54.8 		"/>
		<polygon class="st4" points="185.9,55.1 181.9,55.1 174.1,60.3 172.8,60.3 172.8,55.1 170.3,55.1 170.3,68.1 172.8,68.1
			172.8,62.6 174.1,62.6 182.1,68.1 186.1,68.1 176.6,61.5 		"/>
		<rect x="187.1" y="55.1" class="st4" width="2.5" height="13"/>
		<polygon class="st4" points="213.9,55.1 209.9,55.1 202.1,60.3 200.8,60.3 200.8,55.1 198.3,55.1 198.3,68.1 200.8,68.1
			200.8,62.6 202.1,62.6 210.1,68.1 214.1,68.1 204.7,61.5 		"/>
		<polygon class="st4" points="217.6,55.1 215.1,55.1 215.1,68.1 227.1,68.1 227.1,65.8 217.6,65.8 		"/>
		<path class="st4" d="M241.7,61.7c0,0.9,0,1.6-0.1,2.2c-0.1,0.5-0.2,0.9-0.3,1.2c-0.1,0.2-0.3,0.4-0.5,0.6
			c-0.3,0.1-0.6,0.2-1.1,0.3c-0.5,0.1-1.1,0.1-1.8,0.1h-2.8c-0.7,0-1.3,0-1.8-0.1c-0.4-0.1-0.8-0.1-1.1-0.3
			c-0.2-0.1-0.4-0.3-0.5-0.6c-0.1-0.3-0.2-0.7-0.3-1.2c-0.1-0.6-0.1-1.3-0.1-2.2v-6.7h-2.5v6.7c0,1.3,0.1,2.4,0.3,3.2
			c0.2,0.9,0.5,1.6,1,2.1c0.5,0.5,1.2,0.8,2,1c0.8,0.2,1.8,0.2,3,0.2h2.8c1.2,0,2.2-0.1,3-0.2c0.9-0.2,1.5-0.5,2-1
			c0.5-0.5,0.8-1.2,1-2.1c0.2-0.8,0.3-1.9,0.3-3.2v-6.7h-2.5L241.7,61.7L241.7,61.7z"/>
		<path class="st4" d="M261.2,61.7c-0.2-0.3-0.5-0.5-0.8-0.7c0.1-0.1,0.3-0.3,0.4-0.4c0.4-0.5,0.6-1.2,0.6-2c0-0.9-0.2-1.6-0.5-2.1
			c-0.3-0.5-0.9-0.9-1.6-1.1c-0.6-0.2-1.4-0.3-2.4-0.3h-10.1v13h9.4c1,0,1.9-0.1,2.5-0.2c0.7-0.1,1.3-0.3,1.8-0.6
			c0.5-0.3,0.8-0.8,1-1.3c0.2-0.5,0.3-1.2,0.3-1.9C261.8,63.2,261.6,62.4,261.2,61.7L261.2,61.7z M256.2,65.8h-6.9v-3.5h6.5
			c0.5,0,1.1,0,1.5,0c0.4,0,0.8,0.1,1.1,0.2c0.3,0.1,0.5,0.2,0.6,0.5s0.2,0.6,0.2,1c0,0.6-0.1,0.9-0.1,1.1c-0.1,0.2-0.2,0.3-0.3,0.4
			c-0.2,0.1-0.5,0.2-0.9,0.2C257.5,65.8,256.9,65.8,256.2,65.8L256.2,65.8z M255.8,60.1h-6.5v-2.8h7.6c0.6,0,1,0,1.4,0.1
			c0.3,0.1,0.4,0.2,0.4,0.2c0.1,0.1,0.1,0.3,0.1,0.9c0,0.7-0.2,1-0.2,1.1c-0.2,0.2-0.4,0.3-0.8,0.3
			C257.3,60.1,256.6,60.1,255.8,60.1L255.8,60.1z"/>
	</g>
</g>
</svg>
