<?xml version="1.0" encoding="utf-8"?>
<!-- Generator: Adobe Illustrator 26.0.3, SVG Export Plug-In . SVG Version: 6.00 Build 0)  -->
<!DOCTYPE svg PUBLIC "-//W3C//DTD SVG 1.1//EN" "http://www.w3.org/Graphics/SVG/1.1/DTD/svg11.dtd" [
	<!ENTITY ns_extend "http://ns.adobe.com/Extensibility/1.0/">
	<!ENTITY ns_ai "http://ns.adobe.com/AdobeIllustrator/10.0/">
	<!ENTITY ns_graphs "http://ns.adobe.com/Graphs/1.0/">
	<!ENTITY ns_vars "http://ns.adobe.com/Variables/1.0/">
	<!ENTITY ns_imrep "http://ns.adobe.com/ImageReplacement/1.0/">
	<!ENTITY ns_sfw "http://ns.adobe.com/SaveForWeb/1.0/">
	<!ENTITY ns_custom "http://ns.adobe.com/GenericCustomNamespace/1.0/">
	<!ENTITY ns_adobe_xpath "http://ns.adobe.com/XPath/1.0/">
]>
<svg version="1.1" id="Layer_1" xmlns:x="&ns_extend;" xmlns:i="&ns_ai;" xmlns:graph="&ns_graphs;"
	 xmlns="http://www.w3.org/2000/svg" xmlns:xlink="http://www.w3.org/1999/xlink" x="0px" y="0px" viewBox="0 0 1069.7 172.3"
	 style="enable-background:new 0 0 1069.7 172.3;" xml:space="preserve">
<style type="text/css">
	.blueone{fill:#009AF3;}
</style>
<switch>
	<g i:extraneous="self">
		<g>
			<path class="blueone first" d="M686.8,83.4c-39.8,0-59.8-17.8-79.1-35c-18.6-16.6-36.2-32.2-72-32.2c-35.8,0-53.4,15.7-72,32.2
				c-19.4,17.2-39.4,35-79.1,35c-39.8,0-59.8-17.8-79.1-35c-2.7-2.4-3.2-6.9-1.2-10.1c2-3.2,5.7-3.9,8.4-1.5
				c18.6,16.6,36.2,32.2,72,32.2c35.8,0,53.4-15.7,72-32.2c19.4-17.2,39.4-35,79.1-35c39.8,0,59.8,17.8,79.1,35
				C633.4,53.3,651,69,686.8,69c16,0,29.7-3.2,42.1-9.7c11.4-6,20.5-14.1,29.3-22c2.7-2.4,6.4-1.7,8.4,1.5c2,3.2,1.4,7.7-1.3,10.1
				C747.2,65,726.6,83.4,686.8,83.4z"/>
			<path class="blueone second" d="M686.8,171c-39.8,0-59.8-17.8-79.1-35c-18.6-16.6-36.2-32.2-72-32.2c-35.8,0-53.4,15.7-72,32.2
				c-19.4,17.2-39.4,35-79.1,35c-39.8,0-59.8-17.8-79.1-35c-2.7-2.4-3.2-6.9-1.2-10.1c2-3.2,5.7-3.9,8.4-1.5
				c18.6,16.6,36.2,32.2,72,32.2c35.8,0,53.4-15.7,72-32.2c19.4-17.2,39.4-35,79.1-35c39.8,0,59.8,17.8,79.1,35
				c18.6,16.6,36.2,32.2,72,32.2c16,0,29.7-3.2,42.1-9.7c11.4-6,20.5-14.1,29.3-22c2.7-2.4,6.4-1.7,8.4,1.5c2,3.2,1.4,7.7-1.3,10.1
				C747.2,152.6,726.6,171,686.8,171z"/>
		</g>
	</g>
</switch>
</svg>
